<svg width="32" height="32" viewBox="0 0 32 32" fill="none" xmlns="http://www.w3.org/2000/svg">
<path d="M15.9995 18.8329C16.0006 19.1824 15.8915 19.5234 15.6877 19.8073C15.484 20.0912 15.196 20.3036 14.8646 20.4144C14.5333 20.5251 14.1754 20.5285 13.842 20.4241C13.5086 20.3197 13.2166 20.1129 13.0075 19.8329H13.0008C12.7442 19.8359 12.4903 19.7789 12.2597 19.6662C12.029 19.5535 11.828 19.3884 11.6725 19.184C11.5171 18.9797 11.4116 18.7418 11.3646 18.4894C11.3175 18.2369 11.3302 17.977 11.4015 17.7303C11.0478 17.621 10.7317 17.4149 10.4888 17.1354C10.246 16.8559 10.0861 16.514 10.0271 16.1483C9.96824 15.7827 10.0127 15.4078 10.1555 15.0661C10.2982 14.7244 10.5336 14.4294 10.8351 14.2144C10.6565 13.8477 10.6203 13.4277 10.7336 13.0358C10.8468 12.6439 11.1015 12.308 11.4482 12.0932C11.3589 11.8655 11.3213 11.6208 11.3381 11.3768C11.3549 11.1328 11.4256 10.8956 11.5452 10.6822C11.6649 10.4689 11.8303 10.2849 12.0298 10.1433C12.2292 10.0018 12.4575 9.9064 12.6983 9.86395C12.7435 9.62013 12.8425 9.38947 12.9881 9.18879C13.1337 8.9881 13.3222 8.82245 13.5399 8.70391C13.7576 8.58536 13.999 8.51691 14.2465 8.50355C14.494 8.49019 14.7414 8.53225 14.9706 8.62666C15.2751 8.75274 15.5354 8.96636 15.7186 9.24047C15.9017 9.51459 15.9995 9.83689 15.9995 10.1666M15.9995 18.8329V10.1666M15.9995 18.8329C15.9984 19.1824 16.1075 19.5234 16.3112 19.8073C16.515 20.0912 16.803 20.3036 17.1343 20.4144C17.4657 20.5251 17.8235 20.5285 18.1569 20.4241C18.4903 20.3197 18.7823 20.1129 18.9915 19.8329H18.9981C19.255 19.8363 19.509 19.7794 19.7399 19.6669C19.9708 19.5543 20.1722 19.3893 20.3278 19.1849C20.4835 18.9805 20.5891 18.7424 20.6363 18.4899C20.6835 18.2373 20.6708 17.9771 20.5994 17.7303C20.953 17.6208 21.2689 17.4145 21.5116 17.1349C21.7542 16.8552 21.9139 16.5133 21.9726 16.1477C22.0313 15.782 21.9867 15.4073 21.8437 15.0657C21.7008 14.7241 21.4653 14.4293 21.1638 14.2144C21.3424 13.8476 21.3785 13.4276 21.2651 13.0356C21.1517 12.6437 20.8969 12.3079 20.5501 12.0932C20.6394 11.8655 20.677 11.6209 20.6603 11.3769C20.6435 11.133 20.5728 10.8958 20.4533 10.6825C20.3337 10.4692 20.1683 10.2851 19.969 10.1435C19.7697 10.002 19.5414 9.90648 19.3007 9.86395C19.2301 9.48141 19.0279 9.13564 18.7292 8.88654C18.4306 8.63743 18.0542 8.50069 17.6654 8.5C17.2236 8.5 16.7998 8.67559 16.4874 8.98814C16.175 9.30069 15.9995 9.72459 15.9995 10.1666M10.6685 13.4998C10.6685 13.2243 10.7368 12.9531 10.8672 12.7104C10.9976 12.4678 11.1862 12.2613 11.4159 12.1094C11.6456 11.9575 11.9095 11.8649 12.1837 11.84C12.458 11.8151 12.7341 11.8585 12.9875 11.9665M12.8009 17.667C12.3485 17.8652 11.8387 17.8888 11.3699 17.7332C10.9011 17.5777 10.5064 17.2541 10.262 16.8247C10.0175 16.3954 9.94065 15.8907 10.0461 15.4079C10.1516 14.9252 10.4319 14.4986 10.8331 14.2104M21.3304 13.4998C21.3305 13.2242 21.2622 12.9529 21.1318 12.7102C21.0013 12.4675 20.8127 12.2609 20.5829 12.109C20.353 11.957 20.0891 11.8645 19.8148 11.8397C19.5404 11.8148 19.2642 11.8584 19.0108 11.9665M19.1974 17.667C19.6499 17.8657 20.1599 17.8897 20.6291 17.7343C21.0982 17.579 21.4932 17.2553 21.7379 16.8257C21.9825 16.3962 22.0594 15.8912 21.9538 15.4082C21.8481 14.9252 21.5674 14.4985 21.1658 14.2104" stroke="#0565FF" stroke-width="1.5" stroke-linecap="round" stroke-linejoin="round"/>
<path d="M9 24L9 24.75H9V24ZM5 20L4.25 20L5 20ZM9 5L9 4.25H9L9 5ZM23 5L23 4.25H23V5ZM27 9L27.75 9L27 9ZM23 24L23 24.75H23L23 24ZM13.8536 28.6464L13.3232 28.1161L13.8536 28.6464ZM13 28.2929H13.75V24.5H13H12.25V28.2929H13ZM12.5 24V23.25H9V24V24.75H12.5V24ZM9 24L9 23.25C7.20507 23.25 5.75 21.7949 5.75 20L5 20L4.25 20C4.25 22.6234 6.37665 24.75 9 24.75L9 24ZM5 20H5.75V9H5H4.25V20H5ZM5 9H5.75C5.75 7.20507 7.20507 5.75 9 5.75L9 5L9 4.25C6.37665 4.25 4.25 6.37665 4.25 9H5ZM9 5V5.75H23V5V4.25H9V5ZM23 5L23 5.75C24.7949 5.75 26.25 7.20507 26.25 9L27 9L27.75 9C27.75 6.37665 25.6234 4.25 23 4.25L23 5ZM27 9H26.25V20H27H27.75V9H27ZM27 20H26.25C26.25 21.7949 24.7949 23.25 23 23.25L23 24L23 24.75C25.6234 24.75 27.75 22.6234 27.75 20H27ZM23 24V23.25H18.7071V24V24.75H23V24ZM18.3536 24.1464L17.8232 23.6161L13.3232 28.1161L13.8536 28.6464L14.3839 29.1768L18.8839 24.6768L18.3536 24.1464ZM13 24.5H13.75C13.75 23.8096 13.1904 23.25 12.5 23.25V24V24.75C12.3619 24.75 12.25 24.6381 12.25 24.5H13ZM18.7071 24V23.25C18.3756 23.25 18.0576 23.3817 17.8232 23.6161L18.3536 24.1464L18.8839 24.6768C18.837 24.7237 18.7734 24.75 18.7071 24.75V24ZM13 28.2929H12.25C12.25 29.4065 13.5964 29.9642 14.3839 29.1768L13.8536 28.6464L13.3232 28.1161C13.4807 27.9586 13.75 28.0702 13.75 28.2929H13Z" fill="#0565FF"/>
</svg>
