<svg width="17" height="17" viewBox="0 0 17 17" fill="none" xmlns="http://www.w3.org/2000/svg">
<path d="M6 1.58301C6.41396 1.58318 6.74982 1.91905 6.75 2.33301V2.91602H8.01758C8.07811 3.39811 8.30961 3.82606 8.65039 4.13867C8.5804 4.2269 8.51698 4.32021 8.45703 4.41602H5.86621C5.2943 4.41602 4.91 4.41727 4.61426 4.44141C4.39893 4.45901 4.267 4.48619 4.17676 4.51855L4.09863 4.55273C3.89301 4.65759 3.72062 4.81702 3.60059 5.0127L3.55273 5.09863C3.50661 5.18916 3.46487 5.32734 3.44141 5.61426C3.41727 5.91 3.41602 6.2943 3.41602 6.86621V11.1328C3.41602 11.705 3.41726 12.0899 3.44141 12.3857C3.46483 12.6723 3.50669 12.8099 3.55273 12.9004L3.60059 12.9863C3.72055 13.182 3.89307 13.3414 4.09863 13.4463L4.17676 13.4805C4.26699 13.5128 4.39888 13.541 4.61426 13.5586C4.91 13.5827 5.29433 13.583 5.86621 13.583H10.1328C10.705 13.583 11.0899 13.5827 11.3857 13.5586C11.6726 13.5351 11.8098 13.4924 11.9004 13.4463L11.9863 13.3984C12.1822 13.2784 12.3414 13.1062 12.4463 12.9004L12.4805 12.8223C12.5128 12.732 12.541 12.6008 12.5586 12.3857C12.5827 12.0899 12.583 11.705 12.583 11.1328V8.54492C12.8243 8.39406 13.0433 8.21097 13.2324 8H14.083V9.58301H14.666C15.0801 9.58301 15.4158 9.91894 15.416 10.333C15.416 10.7472 15.0802 11.083 14.666 11.083H14.083V11.1328C14.083 11.6803 14.084 12.1367 14.0537 12.5078C14.0266 12.8401 13.9711 13.1548 13.8428 13.4541L13.7832 13.5811C13.5525 14.0338 13.2013 14.4125 12.7705 14.6768L12.5811 14.7832C12.2439 14.9549 11.8875 15.0227 11.5078 15.0537C11.2861 15.0718 11.0337 15.0763 10.75 15.0791V15.666C10.75 16.0801 10.4141 16.4158 10 16.416C9.58594 16.4158 9.25 16.0801 9.25 15.666V15.083H6.75V15.666C6.75 16.0801 6.41406 16.4158 6 16.416C5.58594 16.4158 5.25 16.0801 5.25 15.666V15.0791C4.96605 15.0763 4.71308 15.0718 4.49121 15.0537C4.15897 15.0265 3.84419 14.9712 3.54492 14.8428L3.41797 14.7832C2.9653 14.5525 2.58642 14.2013 2.32227 13.7705L2.21582 13.5811C2.04431 13.2441 1.97731 12.8873 1.94629 12.5078C1.916 12.1367 1.91602 11.6803 1.91602 11.1328V11.083H1.33301C0.918944 11.0828 0.583008 10.7471 0.583008 10.333C0.583184 9.91905 0.919052 9.58318 1.33301 9.58301H1.91602V7.75H1.33301C0.919052 7.74982 0.583184 7.41396 0.583008 7C0.583184 6.58604 0.919052 6.25018 1.33301 6.25H1.91895C1.92171 5.96604 1.92816 5.71309 1.94629 5.49121C1.97735 5.11168 2.04416 4.75495 2.21582 4.41797L2.32227 4.22852C2.58646 3.79782 2.96529 3.4465 3.41797 3.21582L3.54492 3.15625C3.84416 3.02789 4.15901 2.97348 4.49121 2.94629C4.71309 2.92816 4.96604 2.92171 5.25 2.91895V2.33301C5.25018 1.91905 5.58604 1.58318 6 1.58301ZM8.01172 6.25C8.05781 6.80781 8.25793 7.32061 8.56738 7.75H7.06641C6.919 7.75 6.82332 7.75129 6.75391 7.75391C6.75129 7.82332 6.75 7.919 6.75 8.06641V9.93262C6.75 10.079 6.75134 10.1748 6.75391 10.2441C6.82332 10.2468 6.91897 10.25 7.06641 10.25H8.93262C9.0791 10.25 9.17481 10.2467 9.24414 10.2441C9.24671 10.1748 9.25 10.0791 9.25 9.93262V8.43164C9.67948 8.74129 10.192 8.94217 10.75 8.98828V9.93262C10.75 10.1067 10.7504 10.283 10.7383 10.4316C10.7286 10.5498 10.7083 10.6876 10.6572 10.8311L10.5957 10.9766C10.4768 11.2099 10.2954 11.4049 10.0732 11.541L9.97656 11.5957C9.78195 11.6948 9.58916 11.7254 9.43164 11.7383C9.28298 11.7504 9.10668 11.75 8.93262 11.75H7.06641C6.8922 11.75 6.71608 11.7504 6.56738 11.7383C6.44921 11.7286 6.31145 11.7084 6.16797 11.6572L6.02344 11.5957C5.79028 11.4768 5.59503 11.2951 5.45898 11.0732L5.4043 10.9766C5.30527 10.782 5.27458 10.5891 5.26172 10.4316C5.24961 10.283 5.25 10.1067 5.25 9.93262V8.06641C5.25 7.8922 5.24957 7.71608 5.26172 7.56738C5.27461 7.40993 5.30523 7.21791 5.4043 7.02344L5.45898 6.92578C5.59507 6.70394 5.79028 6.52313 6.02344 6.4043L6.16797 6.3418C6.31141 6.29069 6.44924 6.27139 6.56738 6.26172C6.71608 6.24957 6.8922 6.25 7.06641 6.25H8.01172Z" fill="#ADB5BD"/>
<path d="M13.3333 2.66699C13.3333 3.21928 13.781 3.66699 14.3333 3.66699C14.8855 3.66699 15.3333 3.21928 15.3333 2.66699C15.3333 2.11471 14.8855 1.66699 14.3333 1.66699C13.781 1.66699 13.3333 2.11471 13.3333 2.66699ZM13.3333 2.66699L9.99992 2.66699M11.9999 6.00033C11.9999 6.55261 11.5522 7.00033 10.9999 7.00033C10.4476 7.00033 9.99992 6.55261 9.99992 6.00033C9.99992 5.44804 10.4476 5.00033 10.9999 5.00033C11.5522 5.00033 11.9999 5.44804 11.9999 6.00033ZM11.9999 6.00033L15.3333 6.00033" stroke="#ADB5BD" stroke-width="1.5" stroke-linecap="round" stroke-linejoin="round"/>
<g opacity="0.01">
<path d="M14.3333 3.66699C13.781 3.66699 13.3333 3.21928 13.3333 2.66699C13.3333 2.11471 13.781 1.66699 14.3333 1.66699C14.8855 1.66699 15.3333 2.11471 15.3333 2.66699C15.3333 3.21928 14.8855 3.66699 14.3333 3.66699Z" fill="#ADB5BD"/>
<path d="M10.9999 7.00033C10.4476 7.00033 9.99992 6.55261 9.99992 6.00033C9.99992 5.44804 10.4476 5.00033 10.9999 5.00033C11.5522 5.00033 11.9999 5.44804 11.9999 6.00033C11.9999 6.55261 11.5522 7.00033 10.9999 7.00033Z" fill="#ADB5BD"/>
</g>
</svg>
