<svg width="16" height="16" viewBox="0 0 16 16" fill="none" xmlns="http://www.w3.org/2000/svg">
<path d="M8.75 5C8.75 4.58579 8.41421 4.25 8 4.25C7.58579 4.25 7.25 4.58579 7.25 5H8.75ZM8 8L8.53033 8.53033C8.67098 8.38968 8.75 8.19891 8.75 8H8ZM6.13634 8.803C5.84344 9.0959 5.84344 9.57077 6.13634 9.86366C6.42923 10.1566 6.9041 10.1566 7.197 9.86366L6.13634 8.803ZM8 5H7.25V8H8H8.75V5H8ZM8 8L7.46967 7.46967L6.13634 8.803L6.66667 9.33333L7.197 9.86366L8.53033 8.53033L8 8ZM14 8H13.25C13.25 10.8995 10.8995 13.25 8 13.25V14V14.75C11.7279 14.75 14.75 11.7279 14.75 8H14ZM8 14V13.25C5.10051 13.25 2.75 10.8995 2.75 8H2H1.25C1.25 11.7279 4.27208 14.75 8 14.75V14ZM2 8H2.75C2.75 5.10051 5.10051 2.75 8 2.75V2V1.25C4.27208 1.25 1.25 4.27208 1.25 8H2ZM8 2V2.75C10.8995 2.75 13.25 5.10051 13.25 8H14H14.75C14.75 4.27208 11.7279 1.25 8 1.25V2Z" fill="#ADB5BD"/>
</svg>
