<svg width="16" height="16" viewBox="0 0 16 16" fill="none" xmlns="http://www.w3.org/2000/svg">
<g clip-path="url(#clip0_410_13481)">
<path d="M1.33325 7.99967C1.33325 11.6816 4.31802 14.6663 7.99992 14.6663C9.10449 14.6663 9.99992 13.7709 9.99992 12.6663V12.333C9.99992 12.0234 9.99992 11.8686 10.017 11.7386C10.1352 10.8412 10.8414 10.1349 11.7389 10.0168C11.8688 9.99967 12.0236 9.99967 12.3333 9.99967H12.6666C13.7712 9.99967 14.6666 9.10424 14.6666 7.99967C14.6666 4.31778 11.6818 1.33301 7.99992 1.33301C4.31802 1.33301 1.33325 4.31778 1.33325 7.99967Z" stroke="#ADB5BD" stroke-width="1.5" stroke-linecap="round" stroke-linejoin="round"/>
<path d="M4.66659 8.66634C5.03478 8.66634 5.33325 8.36786 5.33325 7.99967C5.33325 7.63148 5.03478 7.33301 4.66659 7.33301C4.2984 7.33301 3.99992 7.63148 3.99992 7.99967C3.99992 8.36786 4.2984 8.66634 4.66659 8.66634Z" stroke="#ADB5BD" stroke-width="1.5" stroke-linecap="round" stroke-linejoin="round"/>
<path d="M10.6666 5.99967C11.0348 5.99967 11.3333 5.7012 11.3333 5.33301C11.3333 4.96482 11.0348 4.66634 10.6666 4.66634C10.2984 4.66634 9.99992 4.96482 9.99992 5.33301C9.99992 5.7012 10.2984 5.99967 10.6666 5.99967Z" stroke="#ADB5BD" stroke-width="1.5" stroke-linecap="round" stroke-linejoin="round"/>
<path d="M6.66659 5.33301C7.03478 5.33301 7.33325 5.03453 7.33325 4.66634C7.33325 4.29815 7.03478 3.99967 6.66659 3.99967C6.2984 3.99967 5.99992 4.29815 5.99992 4.66634C5.99992 5.03453 6.2984 5.33301 6.66659 5.33301Z" stroke="#ADB5BD" stroke-width="1.5" stroke-linecap="round" stroke-linejoin="round"/>
</g>
<defs>
<clipPath id="clip0_410_13481">
<rect width="16" height="16" fill="white"/>
</clipPath>
</defs>
</svg>
