<svg width="17" height="16" viewBox="0 0 17 16" fill="none" xmlns="http://www.w3.org/2000/svg">
<path d="M1.8335 7.99967C1.8335 11.6816 4.81826 14.6663 8.50016 14.6663C9.60473 14.6663 10.5002 13.7709 10.5002 12.6663V12.333C10.5002 12.0234 10.5002 11.8686 10.5173 11.7386C10.6354 10.8412 11.3416 10.1349 12.2391 10.0168C12.3691 9.99967 12.5239 9.99967 12.8335 9.99967H13.1668C14.2714 9.99967 15.1668 9.10424 15.1668 7.99967C15.1668 4.31778 12.1821 1.33301 8.50016 1.33301C4.81826 1.33301 1.8335 4.31778 1.8335 7.99967Z" stroke="white" stroke-width="1.5" stroke-linecap="round" stroke-linejoin="round"/>
<path d="M5.16683 8.66634C5.53502 8.66634 5.8335 8.36786 5.8335 7.99967C5.8335 7.63148 5.53502 7.33301 5.16683 7.33301C4.79864 7.33301 4.50016 7.63148 4.50016 7.99967C4.50016 8.36786 4.79864 8.66634 5.16683 8.66634Z" stroke="white" stroke-width="1.5" stroke-linecap="round" stroke-linejoin="round"/>
<path d="M11.1668 5.99967C11.535 5.99967 11.8335 5.7012 11.8335 5.33301C11.8335 4.96482 11.535 4.66634 11.1668 4.66634C10.7986 4.66634 10.5002 4.96482 10.5002 5.33301C10.5002 5.7012 10.7986 5.99967 11.1668 5.99967Z" stroke="white" stroke-width="1.5" stroke-linecap="round" stroke-linejoin="round"/>
<path d="M7.16683 5.33301C7.53502 5.33301 7.8335 5.03453 7.8335 4.66634C7.8335 4.29815 7.53502 3.99967 7.16683 3.99967C6.79864 3.99967 6.50016 4.29815 6.50016 4.66634C6.50016 5.03453 6.79864 5.33301 7.16683 5.33301Z" stroke="white" stroke-width="1.5" stroke-linecap="round" stroke-linejoin="round"/>
</svg>
