<svg width="17" height="17" viewBox="0 0 17 17" fill="none" xmlns="http://www.w3.org/2000/svg">
<path fill-rule="evenodd" clip-rule="evenodd" d="M10.7505 9.93262V8.98908C10.1934 8.94312 9.67955 8.74498 9.25049 8.43632V9.93262C9.25049 10.0793 9.2472 10.1748 9.24463 10.2441C9.17527 10.2467 9.07981 10.25 8.93311 10.25H7.06689C6.91927 10.25 6.82386 10.2468 6.75439 10.2441C6.75182 10.1748 6.75049 10.0793 6.75049 9.93262V8.06641C6.75049 7.91882 6.75178 7.82337 6.75439 7.75391C6.82386 7.75129 6.91931 7.75 7.06689 7.75H8.56398C8.25518 7.32097 8.05689 6.80708 8.01081 6.25H7.06689L7.04931 6.25C6.88079 6.24998 6.71166 6.24997 6.56787 6.26172C6.44966 6.27138 6.31202 6.29065 6.16846 6.3418L6.02393 6.4043C5.79068 6.52314 5.59559 6.70386 5.45947 6.92578L5.40479 7.02344C5.30566 7.21803 5.27508 7.40988 5.26221 7.56738C5.25046 7.71117 5.25047 7.8803 5.25049 8.04882L5.25049 8.06641V9.93262L5.25049 9.94938C5.25047 10.1181 5.25046 10.2877 5.26221 10.4316C5.27508 10.5892 5.3056 10.7819 5.40479 10.9766C5.54062 11.2429 5.7575 11.46 6.02393 11.5957C6.21845 11.6947 6.41042 11.7254 6.56787 11.7383C6.71165 11.75 6.88075 11.75 7.04925 11.75H7.04929L7.06689 11.75H8.93311H8.94973C9.11846 11.75 9.28813 11.75 9.43213 11.7383C9.58968 11.7254 9.7824 11.6949 9.97705 11.5957C10.2435 11.4599 10.4604 11.243 10.5962 10.9766C10.6954 10.7819 10.7259 10.5892 10.7388 10.4316C10.7505 10.2876 10.7505 10.118 10.7505 9.94924V9.93262ZM13.2329 7.99935C13.0436 8.21058 12.825 8.39499 12.5835 8.54598V11.1328C12.5835 11.7052 12.5833 12.0899 12.5591 12.3857C12.5356 12.6727 12.4929 12.8098 12.4468 12.9004C12.327 13.1355 12.136 13.3265 11.9009 13.4463C11.8103 13.4924 11.6732 13.5351 11.3862 13.5586C11.0904 13.5828 10.7057 13.583 10.1333 13.583H5.8667C5.29464 13.583 4.91054 13.5827 4.61475 13.5586C4.32762 13.5351 4.18968 13.4924 4.09912 13.4463C3.86409 13.3264 3.673 13.1355 3.55322 12.9004C3.5071 12.8099 3.46536 12.6727 3.44189 12.3857C3.41772 12.0899 3.4165 11.7052 3.4165 11.1328V6.86621C3.4165 6.29412 3.41776 5.91006 3.44189 5.61426C3.46535 5.32713 3.50708 5.18919 3.55322 5.09863C3.67303 4.86362 3.86411 4.67254 4.09912 4.55273C4.18968 4.50659 4.32762 4.46487 4.61475 4.44141C4.91055 4.41727 5.29461 4.41602 5.8667 4.41602H8.45461C8.51488 4.31958 8.58044 4.22679 8.65088 4.13802C8.31011 3.82543 8.0766 3.39807 8.01605 2.91602H6.75049V2.33301C6.75049 1.9189 6.41455 1.58318 6.00049 1.58301C5.58627 1.58301 5.25049 1.91879 5.25049 2.33301V2.91895C4.9664 2.92171 4.71366 2.92815 4.4917 2.94629C4.11206 2.97734 3.75553 3.04412 3.41846 3.21582C2.90101 3.47947 2.47996 3.90052 2.21631 4.41797C2.04461 4.75504 1.97783 5.11157 1.94678 5.49121C1.92864 5.71317 1.9222 5.96591 1.91943 6.25H1.3335C0.919283 6.25 0.583496 6.58579 0.583496 7C0.583672 7.41406 0.919391 7.75 1.3335 7.75H1.9165V9.58301H1.3335C0.919283 9.58301 0.583496 9.91879 0.583496 10.333C0.583496 10.7472 0.919283 11.083 1.3335 11.083H1.9165V11.1328V11.1355C1.9165 11.682 1.9165 12.1373 1.94678 12.5078C1.97781 12.8875 2.04465 13.244 2.21631 13.5811C2.47996 14.0985 2.90101 14.5196 3.41846 14.7832C3.75558 14.955 4.11199 15.0227 4.4917 15.0537C4.71366 15.0718 4.9664 15.0763 5.25049 15.0791V15.666C5.25049 16.0802 5.58627 16.416 6.00049 16.416C6.41455 16.4158 6.75049 16.0801 6.75049 15.666V15.083H9.25049V15.666C9.25049 16.0802 9.58627 16.416 10.0005 16.416C10.4146 16.4158 10.7505 16.0801 10.7505 15.666V15.0791C11.0343 15.0763 11.2865 15.0718 11.5083 15.0537C11.888 15.0227 12.2444 14.9549 12.5815 14.7832C13.099 14.5196 13.52 14.0985 13.7837 13.5811C13.9554 13.2439 14.0232 12.8875 14.0542 12.5078C14.0836 12.1485 14.0835 11.7095 14.0835 11.1849V11.1849L14.0835 11.1328V11.083H14.6665C15.0807 11.083 15.4165 10.7472 15.4165 10.333C15.4165 9.91879 15.0807 9.58301 14.6665 9.58301H14.0835V7.99935H13.2329Z" fill="white"/>
<path d="M13.3335 2.66699C13.3335 3.21928 13.7812 3.66699 14.3335 3.66699C14.8858 3.66699 15.3335 3.21928 15.3335 2.66699C15.3335 2.11471 14.8858 1.66699 14.3335 1.66699C13.7812 1.66699 13.3335 2.11471 13.3335 2.66699ZM13.3335 2.66699L10.0002 2.66699M12.0002 6.00033C12.0002 6.55261 11.5524 7.00033 11.0002 7.00033C10.4479 7.00033 10.0002 6.55261 10.0002 6.00033C10.0002 5.44804 10.4479 5.00033 11.0002 5.00033C11.5524 5.00033 12.0002 5.44804 12.0002 6.00033ZM12.0002 6.00033L15.3335 6.00033" stroke="white" stroke-width="1.5" stroke-linecap="round" stroke-linejoin="round"/>
<g opacity="0.01">
<path d="M14.3335 3.66699C13.7812 3.66699 13.3335 3.21928 13.3335 2.66699C13.3335 2.11471 13.7812 1.66699 14.3335 1.66699C14.8858 1.66699 15.3335 2.11471 15.3335 2.66699C15.3335 3.21928 14.8858 3.66699 14.3335 3.66699Z" fill="white"/>
<path d="M11.0002 7.00033C10.4479 7.00033 10.0002 6.55261 10.0002 6.00033C10.0002 5.44804 10.4479 5.00033 11.0002 5.00033C11.5524 5.00033 12.0002 5.44804 12.0002 6.00033C12.0002 6.55261 11.5524 7.00033 11.0002 7.00033Z" fill="white"/>
</g>
</svg>
