<svg width="24" height="24" viewBox="0 0 24 24" fill="none" xmlns="http://www.w3.org/2000/svg">
<path fill-rule="evenodd" clip-rule="evenodd" d="M5 15.75H17.0155C17.0961 15.1035 17.4853 14.5528 18.031 14.25H5C4.30964 14.25 3.75 13.6904 3.75 13V9C3.75 8.30964 4.30964 7.75 5 7.75H19C19.6904 7.75 20.25 8.30964 20.25 9V13C20.25 13.4704 19.9901 13.8802 19.6061 14.0935C20.4144 14.3502 21 15.1067 21 16V17H21.25V14.5771C21.5638 14.1304 21.75 13.5874 21.75 13V9C21.75 7.48122 20.5188 6.25 19 6.25H16.25V4C16.25 3.0335 15.4665 2.25 14.5 2.25H9.5C8.5335 2.25 7.75 3.0335 7.75 4V6.25H5C3.48122 6.25 2.25 7.48122 2.25 9V13C2.25 13.5874 2.43624 14.1304 2.75 14.5771V19C2.75 20.5188 3.98122 21.75 5.5 21.75H17V21H16C15.3684 21 14.8052 20.7072 14.4387 20.25H5.5C4.80964 20.25 4.25 19.6904 4.25 19V15.6426C4.48872 15.7102 4.73962 15.75 5 15.75ZM13 11.25C13.4142 11.25 13.75 11.5858 13.75 12C13.75 12.4142 13.4142 12.75 13 12.75H11C10.5858 12.75 10.25 12.4142 10.25 12C10.25 11.5858 10.5858 11.25 11 11.25H13ZM14.75 4C14.75 3.86193 14.6381 3.75 14.5 3.75H9.5C9.36193 3.75 9.25 3.86193 9.25 4V6.25H14.75V4Z" fill="#52C82B"/>
<path d="M19 16V22M22 19L16 19" stroke="#52C82B" stroke-width="1.5" stroke-linecap="round"/>
</svg>
