<svg width="24" height="24" viewBox="0 0 24 24" fill="none" xmlns="http://www.w3.org/2000/svg">
<path fill-rule="evenodd" clip-rule="evenodd" d="M2.25 18V6C2.25 4.48122 3.48122 3.25 5 3.25H9.08008C9.88275 3.25 10.6455 3.6006 11.168 4.20996L12.9707 6.31348L13.0645 6.41211C13.2949 6.62825 13.6006 6.75 13.9199 6.75H19C20.5188 6.75 21.75 7.98122 21.75 9.5V17H21V16C21 15.3684 20.7072 14.8052 20.25 14.4387V9.5C20.25 8.80964 19.6904 8.25 19 8.25H13.9199C13.1674 8.25 12.4498 7.942 11.9326 7.40137L11.832 7.29004L10.0293 5.18652C9.79182 4.90947 9.44498 4.75 9.08008 4.75H5C4.30964 4.75 3.75 5.30964 3.75 6V18C3.75 18.6904 4.30964 19.25 5 19.25H14.0155C14.0961 19.8965 14.4853 20.4472 15.031 20.75H5C3.48122 20.75 2.25 19.5188 2.25 18Z" fill="#AA50FF"/>
<path d="M19 16V22M22 19L16 19" stroke="#AA50FF" stroke-width="1.5" stroke-linecap="round"/>
</svg>
