<svg width="16" height="18" viewBox="0 0 16 18" fill="none" xmlns="http://www.w3.org/2000/svg">
<path d="M9.66659 1.5H2.99992C2.07944 1.5 1.33325 2.24619 1.33325 3.16667V14.8333C1.33325 15.7538 2.07944 16.5 2.99992 16.5H12.9999C13.9204 16.5 14.6666 15.7538 14.6666 14.8333V6.5M9.66659 1.5H9.80956C10.2516 1.5 10.6755 1.67559 10.9881 1.98816L14.1784 5.17851C14.491 5.49107 14.6666 5.915 14.6666 6.35702V6.5M9.66659 1.5V5.66667C9.66659 6.1269 10.0397 6.5 10.4999 6.5H14.6666M4.66659 6.5H6.33325M4.66659 9.83333H11.3333M4.66659 13.1667H11.3333" stroke="#ADB5BD" stroke-width="1.5" stroke-linecap="round" stroke-linejoin="round"/>
</svg>
