<svg width="17" height="16" viewBox="0 0 17 16" fill="none" xmlns="http://www.w3.org/2000/svg">
<path d="M12.5001 6.66622L9.83343 3.99955M2.16675 14.3329L4.42299 14.0822C4.69865 14.0516 4.83648 14.0362 4.96531 13.9945C5.07961 13.9575 5.18838 13.9053 5.28867 13.8391C5.40172 13.7646 5.49978 13.6665 5.6959 13.4704L14.5001 4.66622C15.2365 3.92984 15.2365 2.73593 14.5001 1.99955C13.7637 1.26317 12.5698 1.26317 11.8334 1.99955L3.02923 10.8037C2.83311 10.9999 2.73505 11.0979 2.66051 11.211C2.59437 11.3113 2.54209 11.42 2.50509 11.5343C2.46339 11.6632 2.44807 11.801 2.41744 12.0766L2.16675 14.3329Z" stroke="#0565FF" stroke-width="1.5" stroke-linecap="round" stroke-linejoin="round"/>
</svg>
