<svg width="20" height="20" viewBox="0 0 20 20" fill="none" xmlns="http://www.w3.org/2000/svg">
<path d="M11.1276 16.9047L11.7361 17.3431L11.1276 16.9047ZM12.5 15V14.25C12.2589 14.25 12.0325 14.3659 11.8915 14.5616L12.5 15ZM7.5 15L8.1085 14.5616C7.96754 14.3659 7.74112 14.25 7.5 14.25V15ZM8.87235 16.9047L9.48085 16.4662L8.87235 16.9047ZM8.03033 8.63634C7.73744 8.34344 7.26256 8.34344 6.96967 8.63634C6.67678 8.92923 6.67678 9.4041 6.96967 9.697L8.03033 8.63634ZM9.16667 10.8333L8.63634 11.3637C8.92923 11.6566 9.4041 11.6566 9.697 11.3637L9.16667 10.8333ZM13.447 7.61366C13.7399 7.32077 13.7399 6.8459 13.447 6.553C13.1541 6.26011 12.6792 6.26011 12.3863 6.553L13.447 7.61366ZM5.83333 2.5V3.25H14.1667V2.5V1.75H5.83333V2.5ZM17.5 5.83333H16.75V11.6667H17.5H18.25V5.83333H17.5ZM2.5 11.6667H3.25V5.83333H2.5H1.75V11.6667H2.5ZM5.83333 15V14.25C4.4066 14.25 3.25 13.0934 3.25 11.6667H2.5H1.75C1.75 13.9218 3.57817 15.75 5.83333 15.75V15ZM17.5 11.6667H16.75C16.75 13.0934 15.5934 14.25 14.1667 14.25V15V15.75C16.4218 15.75 18.25 13.9218 18.25 11.6667H17.5ZM14.1667 2.5V3.25C15.5934 3.25 16.75 4.4066 16.75 5.83333H17.5H18.25C18.25 3.57817 16.4218 1.75 14.1667 1.75V2.5ZM5.83333 2.5V1.75C3.57817 1.75 1.75 3.57817 1.75 5.83333H2.5H3.25C3.25 4.4066 4.4066 3.25 5.83333 3.25V2.5ZM11.1276 16.9047L11.7361 17.3431L13.1085 15.4384L12.5 15L11.8915 14.5616L10.5191 16.4662L11.1276 16.9047ZM7.5 15L6.8915 15.4384L8.26385 17.3431L8.87235 16.9047L9.48085 16.4662L8.1085 14.5616L7.5 15ZM8.87235 16.9047L8.26385 17.3431C9.13511 18.5523 10.8649 18.5523 11.7361 17.3431L11.1276 16.9047L10.5191 16.4662C10.2465 16.8446 9.75348 16.8446 9.48085 16.4662L8.87235 16.9047ZM7.5 15V14.25H5.83333V15V15.75H7.5V15ZM14.1667 15V14.25H12.5V15V15.75H14.1667V15ZM7.5 9.16667L6.96967 9.697L8.63634 11.3637L9.16667 10.8333L9.697 10.303L8.03033 8.63634L7.5 9.16667ZM9.16667 10.8333L9.697 11.3637L13.447 7.61366L12.9167 7.08333L12.3863 6.553L8.63634 10.303L9.16667 10.8333Z" fill="#495057"/>
</svg>
