<svg width="18" height="18" viewBox="0 0 18 18" fill="none" xmlns="http://www.w3.org/2000/svg">
<path d="M9.83333 1.91667V4.16667C9.83333 5.5668 9.83333 6.26686 10.1058 6.80164C10.3455 7.27205 10.728 7.6545 11.1984 7.89418C11.7331 8.16667 12.4332 8.16667 13.8333 8.16667H16.0833M16.5 9.82352V12.5C16.5 13.9001 16.5 14.6002 16.2275 15.135C15.9878 15.6054 15.6054 15.9878 15.135 16.2275C14.6002 16.5 13.9001 16.5 12.5 16.5H5.5C4.09987 16.5 3.3998 16.5 2.86502 16.2275C2.39462 15.9878 2.01217 15.6054 1.77248 15.135C1.5 14.6002 1.5 13.9001 1.5 12.5V5.5C1.5 4.09987 1.5 3.3998 1.77248 2.86502C2.01217 2.39462 2.39462 2.01217 2.86502 1.77248C3.3998 1.5 4.09987 1.5 5.5 1.5H8.17648C8.78796 1.5 9.09369 1.5 9.38141 1.56908C9.6365 1.63032 9.88036 1.73133 10.104 1.8684C10.3563 2.023 10.5725 2.23919 11.0049 2.67157L15.3284 6.9951C15.7608 7.42747 15.977 7.64366 16.1316 7.89595C16.2687 8.11963 16.3697 8.3635 16.4309 8.61859C16.5 8.90631 16.5 9.21204 16.5 9.82352Z" stroke="#ADB5BD" stroke-width="1.5" stroke-linecap="round" stroke-linejoin="round"/>
</svg>
