<svg width="25" height="24" viewBox="0 0 25 24" fill="none" xmlns="http://www.w3.org/2000/svg">
<path d="M12.5001 18.5C12.5017 19.0243 12.338 19.5357 12.0322 19.9616C11.7265 20.3875 11.2943 20.7061 10.797 20.8722C10.2998 21.0383 9.7628 21.0435 9.26247 20.8869C8.76213 20.7303 8.3239 20.42 8.01007 20H8.00007C7.61491 20.0046 7.23402 19.9189 6.88789 19.7499C6.54175 19.5809 6.23998 19.3332 6.00673 19.0267C5.77347 18.7202 5.6152 18.3633 5.54459 17.9846C5.47398 17.6059 5.49298 17.216 5.60007 16.846C5.06925 16.682 4.59484 16.3729 4.23039 15.9536C3.86594 15.5343 3.62597 15.0214 3.53757 14.4729C3.44917 13.9244 3.51586 13.3621 3.73011 12.8495C3.94436 12.3369 4.29765 11.8944 4.75007 11.572C4.48199 11.0219 4.42767 10.3918 4.59765 9.80393C4.76762 9.21604 5.14978 8.71218 5.67007 8.39C5.53608 8.04845 5.47964 7.68139 5.50483 7.31536C5.53002 6.94933 5.6362 6.59347 5.81572 6.27348C5.99523 5.9535 6.24358 5.67739 6.54283 5.46511C6.84208 5.25283 7.18475 5.10968 7.54607 5.046C7.61387 4.68026 7.76244 4.33426 7.98093 4.03322C8.19942 3.73218 8.48233 3.4837 8.80905 3.30587C9.13576 3.12805 9.49804 3.02537 9.86947 3.00533C10.2409 2.98528 10.6121 3.04837 10.9561 3.19C11.4131 3.37913 11.8037 3.69956 12.0785 4.11075C12.3534 4.52194 12.5001 5.00541 12.5001 5.5M12.5001 18.5V5.5M12.5001 18.5C12.4985 19.0243 12.6622 19.5357 12.9679 19.9616C13.2736 20.3875 13.7059 20.7061 14.2031 20.8722C14.7004 21.0383 15.2373 21.0435 15.7377 20.8869C16.238 20.7303 16.6762 20.42 16.9901 20H17.0001C17.3855 20.005 17.7667 19.9198 18.1133 19.7509C18.4598 19.5821 18.7619 19.3345 18.9955 19.0279C19.2291 18.7213 19.3877 18.3643 19.4584 17.9854C19.5292 17.6065 19.5102 17.2163 19.4031 16.846C19.9337 16.6817 20.4078 16.3723 20.7719 15.9528C21.136 15.5333 21.3757 15.0204 21.4637 14.4719C21.5518 13.9235 21.4849 13.3613 21.2704 12.8489C21.056 12.3365 20.7025 11.8942 20.2501 11.572C20.5181 11.0218 20.5722 10.3916 20.4021 9.80372C20.2319 9.21582 19.8495 8.71203 19.3291 8.39C19.4631 8.04852 19.5195 7.68153 19.4944 7.31556C19.4693 6.9496 19.3632 6.59378 19.1838 6.27381C19.0044 5.95384 18.7561 5.67772 18.457 5.46539C18.1579 5.25305 17.8153 5.10981 17.4541 5.046C17.3481 4.47218 17.0447 3.9535 16.5966 3.57983C16.1484 3.20616 15.5836 3.00103 15.0001 3C14.337 3 13.7011 3.26339 13.2323 3.73223C12.7635 4.20107 12.5001 4.83696 12.5001 5.5M4.50007 10.5C4.50006 10.0867 4.6025 9.6799 4.79822 9.31591C4.99395 8.95193 5.27686 8.64214 5.62163 8.41427C5.96641 8.1864 6.36229 8.04756 6.77387 8.01017C7.18545 7.97277 7.59988 8.038 7.98007 8.2M7.70007 16.751C7.0211 17.0483 6.25611 17.0837 5.55258 16.8504C4.84905 16.6171 4.25679 16.1316 3.88997 15.4875C3.52316 14.8435 3.40776 14.0864 3.56602 13.3623C3.72428 12.6382 4.145 11.9983 4.74707 11.566M20.5001 10.5C20.5002 10.0866 20.3977 9.67963 20.2019 9.31553C20.0062 8.95143 19.7232 8.64156 19.3782 8.41366C19.0333 8.18577 18.6373 8.04696 18.2256 8.00968C17.8139 7.97239 17.3993 8.03778 17.0191 8.2M17.2991 16.751C17.9781 17.0491 18.7436 17.0851 19.4476 16.852C20.1516 16.619 20.7444 16.1334 21.1115 15.4891C21.4786 14.8447 21.5941 14.0872 21.4355 13.3627C21.277 12.6382 20.8558 11.9982 20.2531 11.566" stroke="#ADB5BD" stroke-width="1.5" stroke-linecap="round" stroke-linejoin="round"/>
</svg>
