<svg width="16" height="20" viewBox="0 0 16 20" fill="none" xmlns="http://www.w3.org/2000/svg">
<path d="M3.83325 5.83366L3.08325 5.83366V5.83366H3.83325ZM12.1666 5.83366L11.4166 5.83366V5.83366H12.1666ZM3.08325 10.0003C3.08325 10.4145 3.41904 10.7503 3.83325 10.7503C4.24747 10.7503 4.58325 10.4145 4.58325 10.0003H3.08325ZM11.4166 10.0003C11.4166 10.4145 11.7524 10.7503 12.1666 10.7503C12.5808 10.7503 12.9166 10.4145 12.9166 10.0003H11.4166ZM7.24992 14.5837C7.24992 14.9979 7.5857 15.3337 7.99992 15.3337C8.41413 15.3337 8.74992 14.9979 8.74992 14.5837H7.24992ZM8.74992 13.7503C8.74992 13.3361 8.41413 13.0003 7.99992 13.0003C7.5857 13.0003 7.24992 13.3361 7.24992 13.7503H8.74992ZM2.99992 10.0003V10.7503H12.9999V10.0003V9.25033H2.99992V10.0003ZM14.6666 11.667H13.9166V16.667H14.6666H15.4166V11.667H14.6666ZM12.9999 18.3337V17.5837H2.99992V18.3337V19.0837H12.9999V18.3337ZM1.33325 16.667H2.08325V11.667H1.33325H0.583252V16.667H1.33325ZM2.99992 18.3337V17.5837C2.49366 17.5837 2.08325 17.1733 2.08325 16.667H1.33325H0.583252C0.583252 18.0017 1.66523 19.0837 2.99992 19.0837V18.3337ZM14.6666 16.667H13.9166C13.9166 17.1733 13.5062 17.5837 12.9999 17.5837V18.3337V19.0837C14.3346 19.0837 15.4166 18.0017 15.4166 16.667H14.6666ZM12.9999 10.0003V10.7503C13.5062 10.7503 13.9166 11.1607 13.9166 11.667H14.6666H15.4166C15.4166 10.3323 14.3346 9.25033 12.9999 9.25033V10.0003ZM2.99992 10.0003V9.25033C1.66523 9.25033 0.583252 10.3323 0.583252 11.667H1.33325H2.08325C2.08325 11.1607 2.49366 10.7503 2.99992 10.7503V10.0003ZM3.83325 5.83366L4.58325 5.83366C4.58325 5.38498 4.67163 4.94069 4.84333 4.52616L4.15042 4.23914L3.45751 3.95213C3.21043 4.54865 3.08325 5.18799 3.08325 5.83366L3.83325 5.83366ZM4.15042 4.23914L4.84333 4.52616C5.01503 4.11163 5.2667 3.73498 5.58397 3.41771L5.05364 2.88738L4.52331 2.35705C4.06676 2.8136 3.7046 3.35561 3.45751 3.95213L4.15042 4.23914ZM5.05364 2.88738L5.58397 3.41771C5.90124 3.10044 6.27789 2.84877 6.69242 2.67707L6.4054 1.98416L6.11839 1.29125C5.52187 1.53834 4.97987 1.9005 4.52331 2.35705L5.05364 2.88738ZM6.4054 1.98416L6.69242 2.67707C7.10695 2.50537 7.55124 2.41699 7.99992 2.41699L7.99992 1.66699L7.99992 0.916992C7.35425 0.916992 6.71491 1.04417 6.11839 1.29125L6.4054 1.98416ZM7.99992 1.66699L7.99992 2.41699C8.4486 2.41699 8.89289 2.50537 9.30742 2.67707L9.59443 1.98416L9.88145 1.29125C9.28493 1.04417 8.64559 0.916992 7.99992 0.916992L7.99992 1.66699ZM9.59443 1.98416L9.30742 2.67707C9.72195 2.84877 10.0986 3.10044 10.4159 3.41771L10.9462 2.88738L11.4765 2.35705C11.02 1.9005 10.478 1.53834 9.88145 1.29125L9.59443 1.98416ZM10.9462 2.88738L10.4159 3.41771C10.7331 3.73498 10.9848 4.11163 11.1565 4.52616L11.8494 4.23915L12.5423 3.95213C12.2952 3.35562 11.9331 2.81361 11.4765 2.35705L10.9462 2.88738ZM11.8494 4.23915L11.1565 4.52616C11.3282 4.94069 11.4166 5.38498 11.4166 5.83366L12.1666 5.83366L12.9166 5.83366C12.9166 5.18799 12.7894 4.54865 12.5423 3.95213L11.8494 4.23915ZM3.83325 10.0003H4.58325V5.83366H3.83325H3.08325V10.0003H3.83325ZM12.1666 10.0003H12.9166V5.83366H12.1666H11.4166V10.0003H12.1666ZM7.99992 14.5837H8.74992V13.7503H7.99992H7.24992V14.5837H7.99992Z" fill="#FF4545"/>
</svg>
