<svg width="20" height="20" viewBox="0 0 20 20" fill="none" xmlns="http://www.w3.org/2000/svg">
<path d="M5.83325 5.83366H5.08325H5.83325ZM14.1666 5.83366H13.4166H14.1666ZM5.08325 10.0003C5.08325 10.4145 5.41904 10.7503 5.83325 10.7503C6.24747 10.7503 6.58325 10.4145 6.58325 10.0003H5.08325ZM13.4166 10.0003C13.4166 10.4145 13.7524 10.7503 14.1666 10.7503C14.5808 10.7503 14.9166 10.4145 14.9166 10.0003H13.4166ZM9.24992 14.5837C9.24992 14.9979 9.5857 15.3337 9.99992 15.3337C10.4141 15.3337 10.7499 14.9979 10.7499 14.5837H9.24992ZM10.7499 13.7503C10.7499 13.3361 10.4141 13.0003 9.99992 13.0003C9.5857 13.0003 9.24992 13.3361 9.24992 13.7503H10.7499ZM4.99992 10.0003V10.7503H14.9999V10.0003V9.25033H4.99992V10.0003ZM16.6666 11.667H15.9166V16.667H16.6666H17.4166V11.667H16.6666ZM14.9999 18.3337V17.5837H4.99992V18.3337V19.0837H14.9999V18.3337ZM3.33325 16.667H4.08325V11.667H3.33325H2.58325V16.667H3.33325ZM4.99992 18.3337V17.5837C4.49366 17.5837 4.08325 17.1733 4.08325 16.667H3.33325H2.58325C2.58325 18.0017 3.66523 19.0837 4.99992 19.0837V18.3337ZM16.6666 16.667H15.9166C15.9166 17.1733 15.5062 17.5837 14.9999 17.5837V18.3337V19.0837C16.3346 19.0837 17.4166 18.0017 17.4166 16.667H16.6666ZM14.9999 10.0003V10.7503C15.5062 10.7503 15.9166 11.1607 15.9166 11.667H16.6666H17.4166C17.4166 10.3323 16.3346 9.25033 14.9999 9.25033V10.0003ZM4.99992 10.0003V9.25033C3.66523 9.25033 2.58325 10.3323 2.58325 11.667H3.33325H4.08325C4.08325 11.1607 4.49366 10.7503 4.99992 10.7503V10.0003ZM5.83325 5.83366H6.58325C6.58325 5.38498 6.67163 4.94069 6.84333 4.52616L6.15042 4.23914L5.45751 3.95213C5.21043 4.54865 5.08325 5.18799 5.08325 5.83366H5.83325ZM6.15042 4.23914L6.84333 4.52616C7.01503 4.11163 7.2667 3.73498 7.58397 3.41771L7.05364 2.88738L6.52331 2.35705C6.06676 2.8136 5.7046 3.35561 5.45751 3.95213L6.15042 4.23914ZM7.05364 2.88738L7.58397 3.41771C7.90124 3.10044 8.27789 2.84877 8.69242 2.67707L8.40541 1.98416L8.11839 1.29125C7.52187 1.53834 6.97987 1.9005 6.52331 2.35705L7.05364 2.88738ZM8.40541 1.98416L8.69242 2.67707C9.10695 2.50537 9.55124 2.41699 9.99992 2.41699L9.99992 1.66699V0.916992C9.35425 0.916992 8.71491 1.04417 8.11839 1.29125L8.40541 1.98416ZM9.99992 1.66699L9.99992 2.41699C10.4486 2.41699 10.8929 2.50537 11.3074 2.67707L11.5944 1.98416L11.8814 1.29125C11.2849 1.04417 10.6456 0.916992 9.99992 0.916992V1.66699ZM11.5944 1.98416L11.3074 2.67707C11.7219 2.84877 12.0986 3.10044 12.4159 3.41771L12.9462 2.88738L13.4765 2.35705C13.02 1.9005 12.478 1.53834 11.8814 1.29125L11.5944 1.98416ZM12.9462 2.88738L12.4159 3.41771C12.7331 3.73498 12.9848 4.11163 13.1565 4.52616L13.8494 4.23915L14.5423 3.95213C14.2952 3.35562 13.9331 2.81361 13.4765 2.35705L12.9462 2.88738ZM13.8494 4.23915L13.1565 4.52616C13.3282 4.94069 13.4166 5.38498 13.4166 5.83366H14.1666L14.9166 5.83366C14.9166 5.18799 14.7894 4.54865 14.5423 3.95213L13.8494 4.23915ZM5.83325 10.0003H6.58325V5.83366H5.83325H5.08325V10.0003H5.83325ZM14.1666 10.0003H14.9166V5.83366H14.1666H13.4166V10.0003H14.1666ZM9.99992 14.5837H10.7499V13.7503H9.99992H9.24992V14.5837H9.99992Z" fill="#0565FF"/>
</svg>
