<svg width="20" height="20" viewBox="0 0 20 20" fill="none" xmlns="http://www.w3.org/2000/svg">
<path d="M16.4819 16.4825C17.9815 14.9829 18.9147 13.0097 19.1226 10.8991C19.3305 8.7886 18.8001 6.67127 17.6219 4.90792C16.4437 3.14458 14.6905 1.84432 12.661 1.2287C10.6316 0.613075 8.45147 0.720177 6.49215 1.53176C4.53283 2.34333 2.91552 3.80917 1.9158 5.67951C0.916087 7.54985 0.595812 9.70897 1.00955 11.789C1.42329 13.869 2.54544 15.7412 4.18481 17.0866C5.82418 18.432 7.87932 19.1673 10.0001 19.1673M16.4819 16.4825L16.0417 14.3756M16.4819 16.4825H18.5417" stroke="#495057" stroke-width="1.5" stroke-linecap="round" stroke-linejoin="round"/>
<g clip-path="url(#clip0_222_20435)">
<path d="M10.0001 13.1597C10.0009 13.4146 9.92132 13.6632 9.7727 13.8702C9.62407 14.0772 9.41396 14.2321 9.17224 14.3129C8.93052 14.3936 8.6695 14.3961 8.42628 14.32C8.18306 14.2439 7.97003 14.093 7.81747 13.8889H7.81261C7.62538 13.8911 7.44023 13.8495 7.27197 13.7673C7.10371 13.6852 6.95701 13.5648 6.84363 13.4158C6.73024 13.2667 6.6533 13.0933 6.61898 12.9092C6.58465 12.7251 6.59389 12.5356 6.64595 12.3557C6.38791 12.276 6.15729 12.1257 5.98013 11.9219C5.80296 11.718 5.68631 11.4687 5.64334 11.2021C5.60037 10.9355 5.63279 10.6621 5.73694 10.413C5.84109 10.1638 6.01282 9.94869 6.23275 9.79194C6.10243 9.52452 6.07603 9.21825 6.15866 8.93247C6.24128 8.64669 6.42706 8.40176 6.67997 8.24514C6.61484 8.07911 6.5874 7.90068 6.59965 7.72274C6.61189 7.54481 6.66351 7.37182 6.75077 7.21628C6.83804 7.06073 6.95876 6.92651 7.10423 6.82332C7.2497 6.72013 7.41627 6.65054 7.59192 6.61958C7.62488 6.44179 7.6971 6.2736 7.80331 6.12726C7.90952 5.98092 8.04705 5.86013 8.20586 5.77369C8.36468 5.68725 8.54079 5.63733 8.72135 5.62759C8.9019 5.61784 9.08236 5.64851 9.24956 5.71736C9.47171 5.8093 9.6616 5.96506 9.7952 6.16495C9.9288 6.36483 10.0001 6.59985 10.0001 6.84028M10.0001 13.1597V6.84028M10.0001 13.1597C9.99933 13.4146 10.0789 13.6632 10.2275 13.8702C10.3762 14.0772 10.5863 14.2321 10.828 14.3129C11.0697 14.3936 11.3307 14.3961 11.5739 14.32C11.8172 14.2439 12.0302 14.093 12.1828 13.8889H12.1876C12.375 13.8913 12.5603 13.8499 12.7287 13.7678C12.8972 13.6858 13.0441 13.5654 13.1576 13.4163C13.2712 13.2673 13.3482 13.0937 13.3826 12.9095C13.4171 12.7254 13.4078 12.5357 13.3557 12.3557C13.6137 12.2758 13.8442 12.1254 14.0212 11.9215C14.1982 11.7176 14.3146 11.4682 14.3575 11.2016C14.4003 10.935 14.3677 10.6618 14.2635 10.4127C14.1592 10.1636 13.9874 9.94858 13.7675 9.79194C13.8977 9.52447 13.9241 9.21815 13.8414 8.93236C13.7586 8.64658 13.5728 8.40168 13.3198 8.24514C13.3849 8.07914 13.4124 7.90075 13.4001 7.72284C13.3879 7.54494 13.3363 7.37197 13.2491 7.21644C13.1619 7.0609 13.0413 6.92667 12.8958 6.82345C12.7504 6.72023 12.5839 6.6506 12.4083 6.61958C12.3568 6.34064 12.2093 6.08851 11.9915 5.90686C11.7736 5.72521 11.499 5.6255 11.2154 5.625C10.8931 5.625 10.584 5.75304 10.3561 5.98095C10.1282 6.20886 10.0001 6.51797 10.0001 6.84028M6.11122 9.27083C6.11122 9.06994 6.16101 8.87217 6.25616 8.69524C6.3513 8.5183 6.48883 8.36771 6.65643 8.25694C6.82403 8.14617 7.01647 8.07868 7.21654 8.0605C7.41662 8.04232 7.61807 8.07403 7.80289 8.15278M7.66678 12.3095C7.33672 12.454 6.96485 12.4712 6.62286 12.3578C6.28087 12.2444 5.99296 12.0084 5.81465 11.6953C5.63633 11.3822 5.58024 11.0142 5.65717 10.6622C5.7341 10.3102 5.93862 9.99918 6.23129 9.78903M13.889 9.27083C13.889 9.06987 13.8392 8.87204 13.7441 8.69505C13.6489 8.51805 13.5113 8.36742 13.3437 8.25664C13.176 8.14586 12.9835 8.07839 12.7833 8.06026C12.5832 8.04213 12.3817 8.07392 12.1968 8.15278M12.333 12.3095C12.6631 12.4544 13.0351 12.4719 13.3774 12.3586C13.7196 12.2453 14.0078 12.0093 14.1862 11.6961C14.3647 11.3828 14.4208 11.0146 14.3437 10.6624C14.2667 10.3103 14.0619 9.99911 13.7689 9.78903" stroke="#495057" stroke-width="1.5" stroke-linecap="round" stroke-linejoin="round"/>
</g>
<defs>
<clipPath id="clip0_222_20435">
<rect width="11.6667" height="11.6667" fill="white" transform="translate(4.16675 4.16602)"/>
</clipPath>
</defs>
</svg>
