<svg width="21" height="20" viewBox="0 0 21 20" fill="none" xmlns="http://www.w3.org/2000/svg">
<path d="M5.33333 4.99935L9.08333 8.74935M5.33333 4.99935H2.83333L2 2.49935L2.83333 1.66602L5.33333 2.49935V4.99935ZM16.3825 2.28353L14.1928 4.47321C13.8628 4.80322 13.6978 4.96823 13.636 5.1585C13.5816 5.32587 13.5816 5.50616 13.636 5.67353C13.6978 5.8638 13.8628 6.02881 14.1928 6.35882L14.3905 6.55654C14.7205 6.88655 14.8855 7.05156 15.0758 7.11338C15.2432 7.16777 15.4235 7.16777 15.5908 7.11338C15.7811 7.05156 15.9461 6.88655 16.2761 6.55654L18.3244 4.50828C18.545 5.04509 18.6667 5.63301 18.6667 6.24935C18.6667 8.78065 16.6146 10.8327 14.0833 10.8327C13.7782 10.8327 13.48 10.8029 13.1915 10.746C12.7863 10.6661 12.5838 10.6261 12.461 10.6384C12.3304 10.6514 12.2661 10.6709 12.1504 10.7328C12.0416 10.7911 11.9325 10.9002 11.7142 11.1185L5.75 17.0827C5.05964 17.773 3.94036 17.773 3.25 17.0827C2.55965 16.3923 2.55965 15.273 3.25 14.5827L9.21419 8.61849C9.43248 8.4002 9.54162 8.29106 9.59985 8.18226C9.66175 8.06658 9.68132 8.00224 9.69433 7.87169C9.70657 7.74889 9.66662 7.54633 9.58672 7.14122C9.52983 6.85273 9.5 6.55452 9.5 6.24935C9.5 3.71804 11.552 1.66602 14.0833 1.66602C14.9213 1.66602 15.7067 1.89087 16.3825 2.28353ZM10.3334 12.4993L14.9167 17.0826C15.607 17.7729 16.7263 17.7729 17.4167 17.0826C18.107 16.3922 18.107 15.2729 17.4166 14.5826L13.6461 10.8121C13.3792 10.7868 13.1189 10.7387 12.8673 10.6696C12.5431 10.5806 12.1875 10.6452 11.9497 10.883L10.3334 12.4993Z" stroke="#ADB5BD" stroke-width="1.5" stroke-linecap="round" stroke-linejoin="round"/>
</svg>
