<svg width="21" height="20" viewBox="0 0 21 20" fill="none" xmlns="http://www.w3.org/2000/svg">
<path d="M10.6665 3.33268V12.666C10.6665 14.0661 10.6665 14.7662 10.939 15.301C11.1787 15.7714 11.5611 16.1538 12.0315 16.3935C12.5663 16.666 13.2664 16.666 14.6665 16.666H14.8332M14.8332 16.666C14.8332 17.5865 15.5794 18.3327 16.4998 18.3327C17.4203 18.3327 18.1665 17.5865 18.1665 16.666C18.1665 15.7455 17.4203 14.9993 16.4998 14.9993C15.5794 14.9993 14.8332 15.7455 14.8332 16.666ZM6.49984 3.33268L14.8332 3.33268M6.49984 3.33268C6.49984 4.25316 5.75365 4.99935 4.83317 4.99935C3.9127 4.99935 3.1665 4.25316 3.1665 3.33268C3.1665 2.41221 3.9127 1.66602 4.83317 1.66602C5.75365 1.66602 6.49984 2.41221 6.49984 3.33268ZM14.8332 3.33268C14.8332 4.25316 15.5794 4.99935 16.4998 4.99935C17.4203 4.99935 18.1665 4.25316 18.1665 3.33268C18.1665 2.41221 17.4203 1.66602 16.4998 1.66602C15.5794 1.66602 14.8332 2.41221 14.8332 3.33268ZM10.6665 9.99935H14.8332M14.8332 9.99935C14.8332 10.9198 15.5794 11.666 16.4998 11.666C17.4203 11.666 18.1665 10.9198 18.1665 9.99935C18.1665 9.07887 17.4203 8.33268 16.4998 8.33268C15.5794 8.33268 14.8332 9.07887 14.8332 9.99935Z" stroke="#ADB5BD" stroke-width="1.5" stroke-linecap="round" stroke-linejoin="round"/>
</svg>
