<svg width="20" height="20" viewBox="0 0 20 20" fill="none" xmlns="http://www.w3.org/2000/svg">
<path d="M6.66667 10H3.33333C2.8731 10 2.5 10.3731 2.5 10.8333V15.4167C2.5 15.6903 2.55389 15.9612 2.65858 16.2139C2.76328 16.4667 2.91674 16.6964 3.11019 16.8898C3.30365 17.0833 3.53331 17.2367 3.78608 17.3414C4.03884 17.4461 4.30975 17.5 4.58333 17.5C4.85692 17.5 5.12783 17.4461 5.38059 17.3414C5.63335 17.2367 5.86302 17.0833 6.05647 16.8898C6.24993 16.6964 6.40339 16.4667 6.50808 16.2139C6.61278 15.9612 6.66667 15.6903 6.66667 15.4167V4.16667C6.66667 3.24619 7.41286 2.5 8.33333 2.5H15.8333C16.7538 2.5 17.5 3.24619 17.5 4.16667V15.4167C17.5 15.6903 17.4461 15.9612 17.3414 16.2139C17.2367 16.4667 17.0833 16.6964 16.8898 16.8898C16.6964 17.0833 16.4667 17.2367 16.2139 17.3414C15.9612 17.4461 15.6903 17.5 15.4167 17.5H5M10 5.83333H14.1667M10 9.16667H14.1667M10 12.5H11.6667" stroke="#ADB5BD" stroke-width="1.5" stroke-linecap="round" stroke-linejoin="round"/>
</svg>
