<svg width="16" height="14" viewBox="0 0 16 14" fill="none" xmlns="http://www.w3.org/2000/svg">
<path d="M0.583252 9.50032C0.583252 9.91454 0.919038 10.2503 1.33325 10.2503C1.74747 10.2503 2.08325 9.91454 2.08325 9.50032L0.583252 9.50032ZM13.9166 9.50032C13.9166 9.91454 14.2524 10.2503 14.6666 10.2503C15.0808 10.2503 15.4166 9.91454 15.4166 9.50032L13.9166 9.50032ZM8.74992 1.16699C8.74992 0.752779 8.41413 0.416992 7.99992 0.416992C7.58571 0.416992 7.24992 0.752778 7.24992 1.16699L8.74992 1.16699ZM10.7333 3.21699C10.4847 3.54836 10.5519 4.01846 10.8833 4.26699C11.2146 4.51552 11.6847 4.44836 11.9333 4.11699L10.7333 3.21699ZM13.1833 2.45033C13.4318 2.11895 13.3646 1.64885 13.0333 1.40033C12.7019 1.1518 12.2318 1.21895 11.9833 1.55033L13.1833 2.45033ZM4.06659 4.11699C4.31511 4.44836 4.78521 4.51552 5.11659 4.26699C5.44796 4.01846 5.51511 3.54836 5.26659 3.21699L4.06659 4.11699ZM4.01659 1.55033C3.76806 1.21895 3.29796 1.1518 2.96659 1.40033C2.63521 1.64885 2.56806 2.11895 2.81659 2.45033L4.01659 1.55033ZM10.9166 9.50033H10.1666C10.1666 10.6969 9.19654 11.667 7.99992 11.667V12.417V13.167C10.025 13.167 11.6666 11.5254 11.6666 9.50033H10.9166ZM7.99992 12.417V11.667C6.8033 11.667 5.83325 10.6969 5.83325 9.50033H5.08325H4.33325C4.33325 11.5254 5.97487 13.167 7.99992 13.167V12.417ZM5.08325 9.50033H5.83325C5.83325 8.30371 6.8033 7.33366 7.99992 7.33366V6.58366V5.83366C5.97487 5.83366 4.33325 7.47528 4.33325 9.50033H5.08325ZM7.99992 6.58366V7.33366C9.19654 7.33366 10.1666 8.30371 10.1666 9.50033H10.9166H11.6666C11.6666 7.47528 10.025 5.83366 7.99992 5.83366V6.58366ZM1.33325 9.50032L2.08325 9.50032C2.08325 7.93113 2.70661 6.4262 3.8162 5.31661L3.28587 4.78628L2.75554 4.25595C1.36465 5.64684 0.583252 7.5333 0.583252 9.50032L1.33325 9.50032ZM3.28587 4.78628L3.8162 5.31661C4.92579 4.20702 6.43072 3.58366 7.99992 3.58366L7.99992 2.83366L7.99992 2.08366C6.0329 2.08366 4.14644 2.86506 2.75554 4.25595L3.28587 4.78628ZM7.99992 2.83366L7.99992 3.58366C9.56912 3.58366 11.074 4.20702 12.1836 5.31661L12.714 4.78628L13.2443 4.25595C11.8534 2.86505 9.96694 2.08366 7.99992 2.08366L7.99992 2.83366ZM12.714 4.78628L12.1836 5.31661C13.2932 6.4262 13.9166 7.93113 13.9166 9.50032L14.6666 9.50032L15.4166 9.50032C15.4166 7.5333 14.6352 5.64684 13.2443 4.25595L12.714 4.78628ZM7.99992 2.83366L8.74992 2.83366L8.74992 1.16699L7.99992 1.16699L7.24992 1.16699L7.24992 2.83366L7.99992 2.83366ZM11.3333 3.66699L11.9333 4.11699L13.1833 2.45033L12.5833 2.00033L11.9833 1.55033L10.7333 3.21699L11.3333 3.66699ZM4.66659 3.66699L5.26659 3.21699L4.01659 1.55033L3.41659 2.00033L2.81659 2.45033L4.06659 4.11699L4.66659 3.66699Z" fill="#0565FF"/>
</svg>
