<svg width="20" height="20" viewBox="0 0 20 20" fill="none" xmlns="http://www.w3.org/2000/svg">
<path d="M2.58325 12.5003C2.58325 12.9145 2.91904 13.2503 3.33325 13.2503C3.74747 13.2503 4.08325 12.9145 4.08325 12.5003L2.58325 12.5003ZM15.9166 12.5003C15.9166 12.9145 16.2524 13.2503 16.6666 13.2503C17.0808 13.2503 17.4166 12.9145 17.4166 12.5003L15.9166 12.5003ZM10.7499 4.16699C10.7499 3.75278 10.4141 3.41699 9.99992 3.41699C9.58571 3.41699 9.24992 3.75278 9.24992 4.16699L10.7499 4.16699ZM12.7333 6.21699C12.4847 6.54836 12.5519 7.01846 12.8833 7.26699C13.2146 7.51552 13.6847 7.44836 13.9333 7.11699L12.7333 6.21699ZM15.1833 5.45033C15.4318 5.11895 15.3646 4.64885 15.0333 4.40033C14.7019 4.1518 14.2318 4.21895 13.9833 4.55033L15.1833 5.45033ZM6.06659 7.11699C6.31511 7.44836 6.78521 7.51552 7.11659 7.26699C7.44796 7.01846 7.51511 6.54836 7.26659 6.21699L6.06659 7.11699ZM6.01659 4.55033C5.76806 4.21895 5.29796 4.1518 4.96659 4.40033C4.63521 4.64885 4.56806 5.11895 4.81659 5.45033L6.01659 4.55033ZM12.9166 12.5003H12.1666C12.1666 13.6969 11.1965 14.667 9.99992 14.667V15.417V16.167C12.025 16.167 13.6666 14.5254 13.6666 12.5003H12.9166ZM9.99992 15.417V14.667C8.8033 14.667 7.83325 13.6969 7.83325 12.5003H7.08325H6.33325C6.33325 14.5254 7.97487 16.167 9.99992 16.167V15.417ZM7.08325 12.5003H7.83325C7.83325 11.3037 8.8033 10.3337 9.99992 10.3337V9.58366V8.83366C7.97487 8.83366 6.33325 10.4753 6.33325 12.5003H7.08325ZM9.99992 9.58366V10.3337C11.1965 10.3337 12.1666 11.3037 12.1666 12.5003H12.9166H13.6666C13.6666 10.4753 12.025 8.83366 9.99992 8.83366V9.58366ZM3.33325 12.5003L4.08325 12.5003C4.08325 10.9311 4.70661 9.4262 5.8162 8.31661L5.28587 7.78628L4.75554 7.25595C3.36465 8.64684 2.58325 10.5333 2.58325 12.5003L3.33325 12.5003ZM5.28587 7.78628L5.8162 8.31661C6.92579 7.20702 8.43072 6.58366 9.99992 6.58366L9.99992 5.83366L9.99992 5.08366C8.0329 5.08366 6.14644 5.86506 4.75554 7.25595L5.28587 7.78628ZM9.99992 5.83366L9.99992 6.58366C11.5691 6.58366 13.074 7.20702 14.1836 8.31661L14.714 7.78628L15.2443 7.25595C13.8534 5.86505 11.9669 5.08366 9.99992 5.08366L9.99992 5.83366ZM14.714 7.78628L14.1836 8.31661C15.2932 9.4262 15.9166 10.9311 15.9166 12.5003L16.6666 12.5003L17.4166 12.5003C17.4166 10.5333 16.6352 8.64684 15.2443 7.25595L14.714 7.78628ZM9.99992 5.83366L10.7499 5.83366L10.7499 4.16699L9.99992 4.16699L9.24992 4.16699L9.24992 5.83366L9.99992 5.83366ZM13.3333 6.66699L13.9333 7.11699L15.1833 5.45033L14.5833 5.00033L13.9833 4.55033L12.7333 6.21699L13.3333 6.66699ZM6.66659 6.66699L7.26659 6.21699L6.01659 4.55033L5.41659 5.00033L4.81659 5.45033L6.06659 7.11699L6.66659 6.66699Z" fill="#ADB5BD"/>
</svg>
