<svg width="20" height="20" viewBox="0 0 20 20" fill="none" xmlns="http://www.w3.org/2000/svg">
<path d="M6.25008 3.75033C6.25008 2.59973 7.18282 1.66699 8.33342 1.66699C9.48401 1.66699 10.4167 2.59973 10.4167 3.75033V5.00033H11.2501C12.4149 5.00033 12.9974 5.00033 13.4568 5.19063C14.0694 5.44436 14.556 5.93105 14.8098 6.54362C15.0001 7.00304 15.0001 7.58547 15.0001 8.75033H16.2501C17.4007 8.75033 18.3334 9.68307 18.3334 10.8337C18.3334 11.9843 17.4007 12.917 16.2501 12.917H15.0001V14.3337C15.0001 15.7338 15.0001 16.4339 14.7276 16.9686C14.4879 17.439 14.1055 17.8215 13.6351 18.0612C13.1003 18.3337 12.4002 18.3337 11.0001 18.3337H10.4167V16.8753C10.4167 15.8398 9.57728 15.0003 8.54175 15.0003C7.50621 15.0003 6.66675 15.8398 6.66675 16.8753V18.3337H5.66675C4.26662 18.3337 3.56655 18.3337 3.03177 18.0612C2.56137 17.8215 2.17892 17.439 1.93923 16.9686C1.66675 16.4339 1.66675 15.7338 1.66675 14.3337V12.917H2.91675C4.06734 12.917 5.00008 11.9843 5.00008 10.8337C5.00008 9.68307 4.06734 8.75033 2.91675 8.75033H1.66675C1.66675 7.58547 1.66675 7.00304 1.85705 6.54362C2.11078 5.93105 2.59747 5.44436 3.21004 5.19063C3.66947 5.00033 4.25189 5.00033 5.41675 5.00033H6.25008V3.75033Z" stroke="#ADB5BD" stroke-width="1.5" stroke-linecap="round" stroke-linejoin="round"/>
</svg>
