<svg width="21" height="20" viewBox="0 0 21 20" fill="none" xmlns="http://www.w3.org/2000/svg">
<path d="M2.33325 9.99935C2.33325 14.6017 6.06421 18.3327 10.6666 18.3327C12.0473 18.3327 13.1666 17.2134 13.1666 15.8327V15.416C13.1666 15.029 13.1666 14.8355 13.188 14.673C13.3357 13.5512 14.2184 12.6684 15.3403 12.5207C15.5027 12.4993 15.6962 12.4993 16.0833 12.4993H16.4999C17.8806 12.4993 18.9999 11.3801 18.9999 9.99935C18.9999 5.39698 15.269 1.66602 10.6666 1.66602C6.06421 1.66602 2.33325 5.39698 2.33325 9.99935Z" stroke="#ADB5BD" stroke-width="1.5" stroke-linecap="round" stroke-linejoin="round"/>
<path d="M6.49992 10.8327C6.96016 10.8327 7.33325 10.4596 7.33325 9.99935C7.33325 9.53911 6.96016 9.16602 6.49992 9.16602C6.03968 9.16602 5.66659 9.53911 5.66659 9.99935C5.66659 10.4596 6.03968 10.8327 6.49992 10.8327Z" stroke="#ADB5BD" stroke-width="1.5" stroke-linecap="round" stroke-linejoin="round"/>
<path d="M13.9999 7.49935C14.4602 7.49935 14.8333 7.12625 14.8333 6.66602C14.8333 6.20578 14.4602 5.83268 13.9999 5.83268C13.5397 5.83268 13.1666 6.20578 13.1666 6.66602C13.1666 7.12625 13.5397 7.49935 13.9999 7.49935Z" stroke="#ADB5BD" stroke-width="1.5" stroke-linecap="round" stroke-linejoin="round"/>
<path d="M8.99992 6.66602C9.46016 6.66602 9.83325 6.29292 9.83325 5.83268C9.83325 5.37245 9.46016 4.99935 8.99992 4.99935C8.53968 4.99935 8.16659 5.37245 8.16659 5.83268C8.16659 6.29292 8.53968 6.66602 8.99992 6.66602Z" stroke="#ADB5BD" stroke-width="1.5" stroke-linecap="round" stroke-linejoin="round"/>
</svg>
