<svg width="21" height="20" viewBox="0 0 21 20" fill="none" xmlns="http://www.w3.org/2000/svg">
<path d="M6.91659 3.74935C6.91659 2.59876 7.84933 1.66602 8.99992 1.66602C10.1505 1.66602 11.0833 2.59876 11.0833 3.74935V4.99935H11.9166C13.0814 4.99935 13.6639 4.99935 14.1233 5.18965C14.7359 5.44338 15.2226 5.93007 15.4763 6.54264C15.6666 7.00207 15.6666 7.5845 15.6666 8.74935H16.9166C18.0672 8.74935 18.9999 9.68209 18.9999 10.8327C18.9999 11.9833 18.0672 12.916 16.9166 12.916H15.6666V14.3327C15.6666 15.7328 15.6666 16.4329 15.3941 16.9677C15.1544 17.4381 14.772 17.8205 14.3016 18.0602C13.7668 18.3327 13.0667 18.3327 11.6666 18.3327H11.0833V16.8743C11.0833 15.8388 10.2438 14.9993 9.20825 14.9993C8.17272 14.9993 7.33325 15.8388 7.33325 16.8743V18.3327H6.33325C4.93312 18.3327 4.23306 18.3327 3.69828 18.0602C3.22787 17.8205 2.84542 17.4381 2.60574 16.9677C2.33325 16.4329 2.33325 15.7328 2.33325 14.3327V12.916H3.58325C4.73385 12.916 5.66659 11.9833 5.66659 10.8327C5.66659 9.68209 4.73385 8.74935 3.58325 8.74935H2.33325C2.33325 7.5845 2.33325 7.00207 2.52355 6.54264C2.77729 5.93007 3.26397 5.44338 3.87654 5.18965C4.33597 4.99935 4.9184 4.99935 6.08325 4.99935H6.91659V3.74935Z" stroke="#ADB5BD" stroke-width="1.5" stroke-linecap="round" stroke-linejoin="round"/>
</svg>
