<svg width="20" height="18" viewBox="0 0 20 18" fill="none" xmlns="http://www.w3.org/2000/svg">
<path d="M4.16675 1.5L1.66675 4M18.3334 4L15.8334 1.5M5.00008 14.8333L3.33341 16.5M15.0001 14.8333L16.6667 16.5M7.50008 10.25L9.16675 11.9167L12.9167 8.16667M10.0001 16.5C11.7682 16.5 13.4639 15.7976 14.7141 14.5474C15.9644 13.2971 16.6667 11.6014 16.6667 9.83333C16.6667 8.06522 15.9644 6.36953 14.7141 5.11929C13.4639 3.86905 11.7682 3.16667 10.0001 3.16667C8.23197 3.16667 6.53628 3.86905 5.28604 5.11929C4.03579 6.36953 3.33341 8.06522 3.33341 9.83333C3.33341 11.6014 4.03579 13.2971 5.28604 14.5474C6.53628 15.7976 8.23197 16.5 10.0001 16.5Z" stroke="#ADB5BD" stroke-width="1.5" stroke-linecap="round" stroke-linejoin="round"/>
</svg>
