<svg width="20" height="20" viewBox="0 0 20 20" fill="none" xmlns="http://www.w3.org/2000/svg">
<path d="M13.0382 15.0116C13.3955 16.3452 12.6041 17.7161 11.2704 18.0734C9.93675 18.4308 8.56591 17.6393 8.20855 16.3057M1.71395 9.67702C1.38937 8.51187 1.7269 7.25217 2.59057 6.40541M10.1218 4.78331C10.3754 4.32722 10.4589 3.77597 10.3131 3.23214C10.0153 2.12076 8.87298 1.46121 7.76159 1.759C6.6502 2.0568 5.99065 3.19917 6.28845 4.31056C6.43417 4.85439 6.78211 5.29003 7.2297 5.55826M16.9324 5.59927C16.631 4.42793 15.7088 3.50576 14.5374 3.20428M14.5754 7.87034C14.278 6.76022 13.4839 5.83192 12.3678 5.28965C11.2518 4.74737 9.90516 4.63554 8.62427 4.97875C7.34337 5.32197 6.2331 6.09212 5.5377 7.11977C4.8423 8.14743 4.61873 9.34842 4.91619 10.4585C5.40833 12.2952 5.31277 13.7605 5.00197 14.874C4.64775 16.1431 4.47064 16.7776 4.51849 16.905C4.57323 17.0508 4.61283 17.0908 4.75803 17.147C4.88493 17.1962 5.41808 17.0533 6.48436 16.7676L16.3719 14.1183C17.4382 13.8326 17.9713 13.6897 18.0567 13.5837C18.1543 13.4623 18.1686 13.4079 18.1431 13.2543C18.1208 13.12 17.6502 12.6591 16.7089 11.7371C15.883 10.9283 15.0676 9.70705 14.5754 7.87034Z" stroke="#ADB5BD" stroke-width="1.5" stroke-linecap="round" stroke-linejoin="round"/>
</svg>
