<svg width="16" height="16" viewBox="0 0 16 16" fill="none" xmlns="http://www.w3.org/2000/svg">
<path fill-rule="evenodd" clip-rule="evenodd" d="M13.25 8C13.25 7.74946 13.2324 7.50302 13.1985 7.26185C13.7776 7.10249 14.2516 6.68927 14.4932 6.14937C14.6604 6.73746 14.75 7.35827 14.75 8C14.75 11.7279 11.7279 14.75 8 14.75C6.91146 14.75 5.88268 14.4892 4.9707 14.0303L2.18164 14.7275C1.92613 14.7913 1.65596 14.7165 1.46973 14.5303C1.2835 14.344 1.20867 14.0739 1.27246 13.8184L1.96973 11.0283C1.51105 10.1165 1.25 9.08822 1.25 8C1.25 4.27208 4.27208 1.25 8 1.25C8.64173 1.25 9.26254 1.33955 9.85063 1.50684C9.31072 1.74843 8.89751 2.22237 8.73815 2.80149C8.49698 2.76755 8.25054 2.75 8 2.75C5.1005 2.75 2.75 5.1005 2.75 8C2.75 8.93441 2.99353 9.80981 3.41992 10.5684C3.51364 10.7352 3.5404 10.9316 3.49414 11.1172L3.03027 12.9688L4.88281 12.5059L5.02344 12.4854C5.16481 12.4776 5.30652 12.5098 5.43164 12.5801C6.19019 13.0065 7.06559 13.25 8 13.25C10.8995 13.25 13.25 10.8995 13.25 8Z" fill="#ADB5BD"/>
<path d="M12.6665 1.33301V5.33301M14.6665 3.33301L10.6665 3.33301" stroke="#ADB5BD" stroke-width="1.5" stroke-linecap="round"/>
</svg>
