<svg width="17" height="17" viewBox="0 0 17 17" fill="none" xmlns="http://www.w3.org/2000/svg">
<path fill-rule="evenodd" clip-rule="evenodd" d="M11.1615 5.00344C11.1906 5.00089 11.22 4.9996 11.2498 4.9996C11.802 4.9996 12.2498 5.44731 12.2498 5.9996C12.2498 6.2067 12.1868 6.39911 12.079 6.55871C12.187 6.39904 12.2501 6.20652 12.2501 5.99927C12.2499 5.44725 11.8021 4.99945 11.2501 4.99927C11.2201 4.99927 11.1904 5.00059 11.1611 5.00318C11.1613 5.00327 11.1614 5.00335 11.1615 5.00344ZM8.25009 5.99927C8.25009 6.75982 8.5331 7.45426 8.99955 7.98303V13.3307L8.99857 13.3346L8.99955 13.3355C8.99902 13.5271 9.05882 13.7141 9.17045 13.8697C9.28224 14.0254 9.4408 14.1419 9.6226 14.2027C9.80448 14.2635 10.0011 14.2658 10.1841 14.2086C10.367 14.1513 10.5273 14.0378 10.6421 13.8844L10.6988 13.817C10.8394 13.6686 11.0357 13.5827 11.2427 13.5826H11.2593C11.3991 13.5844 11.5379 13.554 11.6636 13.4928C11.7893 13.4315 11.8992 13.3413 11.9839 13.2301C12.02 13.1827 12.0489 13.1309 12.0747 13.0777C11.8409 13.0625 11.6087 13.0196 11.3843 12.9449L11.148 12.8541L11.0787 12.8189C10.7482 12.6317 10.6064 12.2212 10.7622 11.8658C10.9287 11.4865 11.3713 11.3136 11.7505 11.4801C11.9994 11.5893 12.2759 11.6131 12.5386 11.5514L12.5402 11.5506C12.5691 11.5373 12.5983 11.5239 12.6294 11.5142C12.8496 11.4461 13.0467 11.3172 13.1978 11.1432C13.3488 10.9691 13.4483 10.7564 13.4849 10.5289C13.5215 10.3013 13.4938 10.0677 13.4048 9.85507C13.3158 9.64243 13.1688 9.45851 12.981 9.32479C12.7567 9.16481 12.6456 8.90097 12.6721 8.63973C12.978 8.47397 13.252 8.25651 13.4825 7.99927H14.3335V7.9996C14.3335 8.0283 14.3308 8.0567 14.3277 8.08456C14.3226 8.21756 14.3069 8.34956 14.2798 8.48007C14.4034 8.61508 14.5118 8.76218 14.606 8.91854L14.6107 8.92639C14.6137 8.93128 14.6167 8.93617 14.6196 8.94108C14.6219 8.94495 14.6242 8.94883 14.6265 8.95272C14.7435 9.15354 14.8346 9.36891 14.898 9.5953C14.905 9.62027 14.9112 9.64537 14.9175 9.6705C14.9204 9.6819 14.9238 9.69316 14.9272 9.70444L14.9272 9.70448L14.9272 9.70449C14.9315 9.71877 14.9358 9.73306 14.939 9.74764C14.9413 9.75793 14.9429 9.7684 14.9445 9.77885L14.9445 9.77891C14.9458 9.78741 14.9471 9.7959 14.9488 9.80429C14.9505 9.81326 14.952 9.82228 14.9535 9.8313L14.9566 9.84921C14.9865 10.0153 15.0004 10.1823 14.9995 10.3492C14.9994 10.3713 14.9992 10.3935 14.9986 10.4156C14.9855 10.8623 14.8667 11.3027 14.6421 11.6969C14.4065 12.1104 14.068 12.4497 13.6656 12.691C13.6654 12.837 13.6525 12.9831 13.6255 13.1275C13.5568 13.4952 13.403 13.8417 13.1763 14.1392C12.9496 14.4368 12.6562 14.6776 12.3199 14.8414C12.0924 14.9521 11.8492 15.0236 11.6001 15.0582C11.3289 15.3245 10.9984 15.5256 10.6324 15.6402C10.1483 15.7917 9.62811 15.7863 9.14701 15.6256C8.80971 15.5128 8.50447 15.3263 8.24955 15.0836C7.99457 15.3263 7.68945 15.5129 7.35209 15.6256C6.87113 15.7863 6.35168 15.7916 5.86771 15.6402C5.50128 15.5255 5.16942 15.3248 4.89799 15.0582C4.64919 15.0233 4.40634 14.9513 4.17924 14.8404C3.8433 14.6764 3.55016 14.4358 3.32377 14.1383C3.09742 13.8408 2.94405 13.494 2.87553 13.1266C2.84867 12.9824 2.83471 12.8367 2.83451 12.691C2.432 12.4496 2.09355 12.1096 1.85795 11.6959C1.6338 11.3023 1.51479 10.8626 1.5015 10.4166C1.50081 10.3941 1.50067 10.3717 1.50053 10.3492C1.49965 10.1823 1.51367 10.0153 1.5435 9.84921C1.54572 9.83681 1.54813 9.82446 1.55054 9.8121L1.55131 9.80819C1.5531 9.79903 1.55438 9.78975 1.55566 9.78047L1.55566 9.78047C1.55719 9.76948 1.55871 9.75848 1.56107 9.74764C1.56567 9.72661 1.57148 9.70589 1.57729 9.6852C1.58076 9.67283 1.58423 9.66046 1.58744 9.64804C1.58978 9.63899 1.59239 9.63002 1.595 9.62106L1.595 9.62105L1.60014 9.60311C1.64487 9.44124 1.70332 9.28493 1.77592 9.13534L1.78453 9.11716C1.78872 9.1082 1.79291 9.09923 1.7974 9.09042C1.82086 9.04422 1.84659 8.99942 1.8726 8.95468L1.8792 8.94327C1.88379 8.93532 1.88837 8.92738 1.8931 8.91952C1.98725 8.7629 2.09659 8.61629 2.22025 8.48104C2.19126 8.34187 2.1734 8.20109 2.16947 8.05917C2.16793 8.0395 2.16654 8.01966 2.16654 7.9996C2.16654 7.99762 2.16679 7.99565 2.16703 7.99368C2.16727 7.99175 2.16751 7.98981 2.16752 7.98788C2.16754 7.98017 2.16779 7.97246 2.16805 7.96476L2.1685 7.94882C2.16957 7.89751 2.17296 7.84648 2.17728 7.7955L2.17896 7.77287C2.17986 7.7599 2.18076 7.74692 2.18217 7.73397C2.18897 7.67243 2.19705 7.61111 2.20853 7.55038C2.21007 7.54221 2.21217 7.53415 2.21427 7.52609L2.21427 7.52609C2.21605 7.51924 2.21784 7.51239 2.21928 7.50546L2.22206 7.4921C2.23101 7.44914 2.23996 7.40619 2.2515 7.36386L2.25501 7.35072L2.25501 7.3507C2.25704 7.34303 2.25906 7.33535 2.26127 7.32772C2.26254 7.32332 2.26418 7.31891 2.26582 7.31451L2.26582 7.3145L2.26582 7.3145C2.26733 7.31044 2.26884 7.30638 2.27006 7.30233C2.28871 7.24046 2.30896 7.17902 2.33256 7.11874C2.33595 7.11009 2.33956 7.10153 2.34317 7.09298L2.34318 7.09297L2.34916 7.0787C2.36752 7.03415 2.38768 6.99035 2.40873 6.94686L2.4184 6.92655C2.42414 6.91436 2.42988 6.90218 2.43607 6.89022C2.44215 6.87846 2.44835 6.86674 2.45463 6.85507C2.51038 6.75138 2.57334 6.65209 2.6431 6.55819C2.64879 6.55058 2.6546 6.54307 2.66041 6.53556L2.66042 6.53555L2.66557 6.52889C2.72435 6.45225 2.78755 6.37916 2.85502 6.31014C2.83343 6.14982 2.82724 5.98717 2.83842 5.82479C2.86286 5.47009 2.96526 5.12513 3.1392 4.81503C3.31323 4.50482 3.55417 4.23664 3.84428 4.03085C4.00072 3.91989 4.17005 3.82977 4.34721 3.75936C4.4205 3.57868 4.51518 3.40641 4.63041 3.24764C4.84155 2.95684 5.11457 2.71635 5.43021 2.54452C5.74603 2.37263 6.09656 2.27386 6.45561 2.25448C6.81465 2.2351 7.1739 2.29628 7.50639 2.43319H7.50736C7.78455 2.54792 8.03566 2.71355 8.25053 2.91854L8.26436 2.90546C8.32283 3.39179 8.55725 3.82309 8.90048 4.13794C8.49444 4.64965 8.25016 5.29532 8.25009 5.99927ZM7.49955 4.66659C7.49955 4.48524 7.44603 4.30759 7.34525 4.15682C7.24478 4.0065 7.10202 3.88934 6.9351 3.81991L6.83842 3.78671C6.74061 3.75866 6.63874 3.74704 6.53666 3.75253C6.40063 3.75987 6.26767 3.79685 6.14799 3.8619C6.02835 3.92702 5.92435 4.01832 5.84428 4.1285C5.76416 4.23888 5.70898 4.36647 5.68412 4.50057C5.627 4.80795 5.38553 5.04771 5.07768 5.10214C4.9463 5.12529 4.82127 5.17734 4.71244 5.25448C4.60368 5.33163 4.5131 5.43217 4.44779 5.54843C4.44187 5.55899 4.43636 5.57012 4.43095 5.58106L4.43095 5.58107L4.42728 5.58847C4.75468 5.56731 5.08253 5.61274 5.39115 5.72225L5.5308 5.77597L5.59916 5.81014C5.93212 5.99369 6.07855 6.40305 5.92631 6.76034C5.77403 7.11757 5.37718 7.29619 5.0142 7.18319L4.94291 7.15585L4.83549 7.11874C4.72703 7.08766 4.61354 7.07629 4.50053 7.08651C4.36357 7.09895 4.23158 7.14316 4.11381 7.21347C4.11019 7.2159 4.10681 7.21879 4.10343 7.2217C4.09954 7.22503 4.09565 7.22838 4.09135 7.23104C3.95381 7.31625 3.84303 7.43626 3.76908 7.57772C3.71164 7.68857 3.67934 7.81 3.67045 7.93417C3.66029 8.08868 3.68862 8.24415 3.75736 8.38534C3.75796 8.38656 3.75841 8.38795 3.75886 8.38933C3.7593 8.39065 3.75973 8.39197 3.76029 8.39315C3.7638 8.40064 3.76648 8.40844 3.76915 8.41623L3.76915 8.41624C3.77099 8.4216 3.77283 8.42697 3.77494 8.43222C3.78813 8.46452 3.7997 8.49674 3.80814 8.52987C3.81044 8.53915 3.81211 8.54851 3.81377 8.55788L3.81377 8.55789L3.81596 8.56991C3.82334 8.60735 3.82803 8.64457 3.82963 8.68222L3.82965 8.68981L3.82963 8.69589C3.83548 8.93832 3.72639 9.17635 3.51811 9.32479C3.33043 9.45857 3.18416 9.64244 3.09525 9.85507C3.00634 10.0678 2.97849 10.3013 3.01518 10.5289C3.05184 10.7564 3.1512 10.9692 3.30228 11.1432C3.4534 11.317 3.65058 11.4452 3.87064 11.5133C3.8946 11.5207 3.91736 11.5313 3.93976 11.5417L3.95853 11.5504C4.22167 11.613 4.49899 11.5892 4.74857 11.4801L4.82084 11.4527C5.18258 11.3363 5.58104 11.5103 5.73686 11.8658C5.90299 12.2452 5.72957 12.688 5.35014 12.8541L5.11381 12.9449C4.89002 13.0192 4.65849 13.0616 4.42533 13.0767C4.45127 13.1304 4.48177 13.1823 4.51811 13.2301C4.60266 13.3411 4.71204 13.4305 4.83744 13.4918C4.96298 13.5531 5.10106 13.5843 5.24076 13.5826H5.25639C5.49292 13.5826 5.71539 13.6949 5.85697 13.8844C5.97171 14.0378 6.13213 14.1513 6.31498 14.2086C6.49798 14.2659 6.69463 14.2635 6.8765 14.2027C7.05841 14.142 7.2168 14.0255 7.32865 13.8697C7.44037 13.714 7.50008 13.5272 7.49955 13.3355V4.66659Z" fill="white"/>
<path d="M13.5835 2.66699C13.5835 3.21928 14.0312 3.66699 14.5835 3.66699C15.1358 3.66699 15.5835 3.21928 15.5835 2.66699C15.5835 2.11471 15.1358 1.66699 14.5835 1.66699C14.0312 1.66699 13.5835 2.11471 13.5835 2.66699ZM13.5835 2.66699L10.2502 2.66699M12.2502 6.00033C12.2502 6.55261 11.8024 7.00033 11.2502 7.00033C10.6979 7.00033 10.2502 6.55261 10.2502 6.00033C10.2502 5.44804 10.6979 5.00033 11.2502 5.00033C11.8024 5.00033 12.2502 5.44804 12.2502 6.00033ZM12.2502 6.00033L15.5835 6.00033" stroke="white" stroke-width="1.5" stroke-linecap="round" stroke-linejoin="round"/>
<g opacity="0.01">
<path d="M14.5835 3.66699C14.0312 3.66699 13.5835 3.21928 13.5835 2.66699C13.5835 2.11471 14.0312 1.66699 14.5835 1.66699C15.1358 1.66699 15.5835 2.11471 15.5835 2.66699C15.5835 3.21928 15.1358 3.66699 14.5835 3.66699Z" fill="white"/>
<path d="M11.2502 7.00033C10.6979 7.00033 10.2502 6.55261 10.2502 6.00033C10.2502 5.44804 10.6979 5.00033 11.2502 5.00033C11.8024 5.00033 12.2502 5.44804 12.2502 6.00033C12.2502 6.55261 11.8024 7.00033 11.2502 7.00033Z" fill="white"/>
</g>
</svg>
