<svg width="18" height="18" viewBox="0 0 18 18" fill="none" xmlns="http://www.w3.org/2000/svg">
<path d="M9.00002 14.4167C9.00137 14.8536 8.86495 15.2797 8.61016 15.6346C8.35537 15.9895 7.99519 16.2551 7.58081 16.3935C7.16643 16.532 6.71896 16.5362 6.30202 16.4057C5.88507 16.2753 5.51988 16.0166 5.25835 15.6667H5.25002C4.92905 15.6705 4.61164 15.5991 4.3232 15.4583C4.03475 15.3174 3.78328 15.111 3.5889 14.8556C3.39452 14.6001 3.26263 14.3027 3.20379 13.9872C3.14494 13.6716 3.16077 13.3467 3.25002 13.0383C2.80767 12.9017 2.41232 12.6441 2.10862 12.2947C1.80491 11.9452 1.60493 11.5178 1.53127 11.0608C1.4576 10.6037 1.51318 10.1351 1.69172 9.70795C1.87026 9.28078 2.16466 8.91204 2.54169 8.64333C2.31828 8.1849 2.27302 7.65985 2.41466 7.16994C2.55631 6.68004 2.87478 6.26015 3.30835 5.99167C3.1967 5.70704 3.14966 5.40116 3.17065 5.09613C3.19164 4.79111 3.28013 4.49455 3.42972 4.2279C3.57931 3.96125 3.78628 3.73116 4.03565 3.55426C4.28502 3.37736 4.57058 3.25807 4.87169 3.205C4.92819 2.90022 5.05199 2.61188 5.23407 2.36102C5.41614 2.11015 5.6519 1.90308 5.92416 1.75489C6.19643 1.60671 6.49832 1.52114 6.80785 1.50444C7.11737 1.48773 7.42673 1.54031 7.71335 1.65833C8.09418 1.81594 8.41971 2.08297 8.64874 2.42563C8.87777 2.76829 9.00002 3.17118 9.00002 3.58333M9.00002 14.4167V3.58333M9.00002 14.4167C8.99867 14.8536 9.13509 15.2797 9.38988 15.6346C9.64467 15.9895 10.0049 16.2551 10.4192 16.3935C10.8336 16.532 11.2811 16.5362 11.698 16.4057C12.115 16.2753 12.4802 16.0166 12.7417 15.6667H12.75C13.0712 15.6709 13.3889 15.5998 13.6777 15.4591C13.9664 15.3184 14.2182 15.1121 14.4129 14.8566C14.6076 14.6011 14.7397 14.3035 14.7987 13.9878C14.8576 13.672 14.8418 13.3469 14.7525 13.0383C15.1947 12.9014 15.5898 12.6436 15.8932 12.294C16.1967 11.9444 16.3963 11.517 16.4697 11.0599C16.5431 10.6029 16.4873 10.1344 16.3086 9.70742C16.1299 9.28041 15.8354 8.91185 15.4584 8.64333C15.6817 8.1848 15.7268 7.65968 15.585 7.16977C15.4432 6.67985 15.1246 6.26002 14.6909 5.99167C14.8025 5.7071 14.8496 5.40128 14.8286 5.0963C14.8077 4.79133 14.7193 4.49481 14.5698 4.22818C14.4203 3.96154 14.2134 3.73143 13.9641 3.55449C13.7148 3.37754 13.4294 3.25817 13.1284 3.205C13.04 2.72681 12.7873 2.29458 12.4138 1.98319C12.0403 1.6718 11.5696 1.50086 11.0834 1.5C10.5308 1.5 10.0009 1.71949 9.61021 2.11019C9.21951 2.5009 9.00002 3.0308 9.00002 3.58333M2.33335 7.75C2.33334 7.40561 2.41871 7.06658 2.58181 6.76326C2.74492 6.45994 2.98067 6.20178 3.26799 6.01189C3.5553 5.822 3.8852 5.7063 4.22819 5.67514C4.57117 5.64398 4.91652 5.69833 5.23335 5.83333M5.00002 12.9592C4.43421 13.2069 3.79672 13.2364 3.21044 13.042C2.62417 12.8476 2.13062 12.443 1.82494 11.9063C1.51926 11.3696 1.42309 10.7387 1.55497 10.1353C1.68686 9.53183 2.03746 8.99859 2.53919 8.63833M15.6667 7.75C15.6668 7.4055 15.5814 7.06636 15.4182 6.76294C15.2551 6.45952 15.0193 6.2013 14.7318 6.01139C14.4444 5.82147 14.1144 5.7058 13.7713 5.67473C13.4282 5.64366 13.0827 5.69815 12.7659 5.83333M12.9992 12.9592C13.5651 13.2076 14.2029 13.2376 14.7896 13.0434C15.3763 12.8492 15.8703 12.4445 16.1762 11.9075C16.4822 11.3706 16.5783 10.7393 16.4462 10.1356C16.3141 9.53186 15.9631 8.99847 15.4609 8.63833" stroke="#0565FF" stroke-width="1.5" stroke-linecap="round" stroke-linejoin="round"/>
</svg>
