<svg width="21" height="20" viewBox="0 0 21 20" fill="none" xmlns="http://www.w3.org/2000/svg">
<path d="M4.08333 18.3327V14.166M4.08333 5.83268V1.66602M2 3.74935H6.16667M2 16.2493H6.16667M11.1667 2.49935L9.72152 6.25673C9.48651 6.86776 9.369 7.17327 9.18627 7.43025C9.02432 7.65801 8.82533 7.85701 8.59757 8.01896C8.34059 8.20169 8.03508 8.31919 7.42405 8.5542L3.66667 9.99935L7.42405 11.4445C8.03508 11.6795 8.34059 11.797 8.59757 11.9797C8.82533 12.1417 9.02433 12.3407 9.18628 12.5684C9.369 12.8254 9.48651 13.1309 9.72152 13.742L11.1667 17.4993L12.6118 13.742C12.8468 13.1309 12.9643 12.8254 13.1471 12.5684C13.309 12.3407 13.508 12.1417 13.7358 11.9797C13.9927 11.797 14.2983 11.6795 14.9093 11.4445L18.6667 9.99935L14.9093 8.5542C14.2983 8.31919 13.9927 8.20169 13.7358 8.01896C13.508 7.85701 13.309 7.65801 13.1471 7.43025C12.9643 7.17327 12.8468 6.86776 12.6118 6.25673L11.1667 2.49935Z" stroke="#ADB5BD" stroke-width="1.5" stroke-linecap="round" stroke-linejoin="round"/>
</svg>
