<svg width="21" height="20" viewBox="0 0 21 20" fill="none" xmlns="http://www.w3.org/2000/svg">
<path d="M4.49927 14.249C5.37361 14.249 6.08308 14.9577 6.08325 15.832C6.08325 16.7065 5.37372 17.415 4.49927 17.415C3.62512 17.4147 2.91626 16.7063 2.91626 15.832C2.91644 14.9579 3.62522 14.2494 4.49927 14.249ZM17.0764 15.0859C17.4544 15.1244 17.7491 15.4439 17.7493 15.832C17.7493 16.2203 17.4545 16.5397 17.0764 16.5781L16.9993 16.582H8.66626C8.2522 16.5819 7.91626 16.2461 7.91626 15.832C7.91644 15.4181 8.2523 15.0822 8.66626 15.082H16.9993L17.0764 15.0859ZM4.49927 15.749C4.45365 15.7494 4.41643 15.7864 4.41626 15.832C4.41626 15.8778 4.45355 15.9147 4.49927 15.915C4.54529 15.915 4.58325 15.8781 4.58325 15.832C4.58307 15.7862 4.54518 15.749 4.49927 15.749ZM4.49927 8.41504C5.37361 8.41504 6.08308 9.12472 6.08325 9.99902C6.08308 10.8733 5.37361 11.582 4.49927 11.582C3.62522 11.5817 2.91644 10.8731 2.91626 9.99902C2.91644 9.12494 3.62522 8.41539 4.49927 8.41504ZM16.4504 9.24902C16.7371 9.40769 17.0665 9.49902 17.4172 9.49902C17.4626 9.49901 17.5074 9.49517 17.552 9.49219C17.6746 9.62564 17.7492 9.80352 17.7493 9.99902C17.7491 10.3872 17.4544 10.7067 17.0764 10.7451L16.9993 10.749H8.66626C8.2523 10.7488 7.91644 10.413 7.91626 9.99902C7.91644 9.58507 8.2523 9.2492 8.66626 9.24902H16.4504ZM4.49927 9.91504C4.45365 9.91539 4.41643 9.95336 4.41626 9.99902C4.41643 10.0447 4.45365 10.0817 4.49927 10.082C4.54518 10.082 4.58308 10.0449 4.58325 9.99902C4.58307 9.95315 4.54518 9.91504 4.49927 9.91504ZM4.49927 2.58203C5.3735 2.58203 6.0829 3.29089 6.08325 4.16504C6.08325 5.03949 5.37372 5.74902 4.49927 5.74902C3.62512 5.74867 2.91626 5.03927 2.91626 4.16504C2.91661 3.2911 3.62533 2.58238 4.49927 2.58203ZM12.3167 3.43262C12.5777 3.92557 13.038 4.2943 13.5911 4.43457C13.5069 4.58383 13.4408 4.74523 13.3967 4.91504H8.66626C8.2522 4.91486 7.91626 4.57914 7.91626 4.16504C7.91661 3.75123 8.25241 3.41521 8.66626 3.41504H12.2854C12.2958 3.42079 12.3061 3.42704 12.3167 3.43262ZM4.49927 4.08203C4.45376 4.08238 4.41661 4.11953 4.41626 4.16504C4.41626 4.21085 4.45354 4.24867 4.49927 4.24902C4.54529 4.24902 4.58325 4.21106 4.58325 4.16504C4.5829 4.11932 4.54507 4.08203 4.49927 4.08203Z" fill="#ADB5BD"/>
<path d="M14.0833 0.833984V1.66732M14.0833 1.66732V2.50065M14.0833 1.66732H14.9167M14.0833 1.66732L13.25 1.66732M17.4167 3.33398C17.4167 3.60757 17.3628 3.87848 17.2581 4.13124C17.1534 4.384 16.9999 4.61367 16.8065 4.80712C16.613 5.00058 16.3834 5.15404 16.1306 5.25873C15.8778 5.36343 15.6069 5.41732 15.3333 5.41732C15.6069 5.41732 15.8778 5.4712 16.1306 5.5759C16.3834 5.6806 16.613 5.83406 16.8065 6.02751C16.9999 6.22097 17.1534 6.45063 17.2581 6.70339C17.3628 6.95615 17.4167 7.22706 17.4167 7.50065C17.4167 7.22706 17.4706 6.95615 17.5753 6.70339C17.6799 6.45063 17.8334 6.22097 18.0269 6.02751C18.2203 5.83406 18.45 5.6806 18.7027 5.5759C18.9555 5.4712 19.2264 5.41732 19.5 5.41732C19.2264 5.41732 18.9555 5.36343 18.7027 5.25873C18.45 5.15404 18.2203 5.00058 18.0269 4.80712C17.8334 4.61367 17.6799 4.384 17.5753 4.13124C17.4706 3.87848 17.4167 3.60757 17.4167 3.33398Z" stroke="#ADB5BD" stroke-width="1.5" stroke-linecap="round" stroke-linejoin="round"/>
<path opacity="0.01" d="M17.2581 4.13124C17.3628 3.87848 17.4167 3.60757 17.4167 3.33398C17.4167 3.60757 17.4706 3.87848 17.5753 4.13124C17.6799 4.384 17.8334 4.61367 18.0269 4.80712C18.2203 5.00058 18.45 5.15404 18.7027 5.25873C18.9555 5.36343 19.2264 5.41732 19.5 5.41732C19.2264 5.41732 18.9555 5.4712 18.7027 5.5759C18.45 5.6806 18.2203 5.83406 18.0269 6.02751C17.8334 6.22097 17.6799 6.45063 17.5753 6.70339C17.4706 6.95615 17.4167 7.22706 17.4167 7.50065C17.4167 7.22706 17.3628 6.95615 17.2581 6.70339C17.1534 6.45063 16.9999 6.22097 16.8065 6.02751C16.613 5.83406 16.3834 5.6806 16.1306 5.5759C15.8778 5.4712 15.6069 5.41732 15.3333 5.41732C15.6069 5.41732 15.8778 5.36343 16.1306 5.25873C16.3834 5.15404 16.613 5.00058 16.8065 4.80712C16.9999 4.61367 17.1534 4.384 17.2581 4.13124Z" fill="#ADB5BD"/>
</svg>
