<svg width="24" height="24" viewBox="0 0 24 24" fill="none" xmlns="http://www.w3.org/2000/svg">
<path d="M17 8C17 10.7614 14.7614 13 12 13C9.23858 13 7 10.7614 7 8C7 5.23858 9.23858 3 12 3C14.7614 3 17 5.23858 17 8Z" stroke="#9AA4B2" stroke-width="1.5"/>
<path d="M7.05876 18.5681C6.76224 17.6814 7.6338 16.834 8.64284 17.028L10.3236 17.3511C11.4287 17.5635 12.5713 17.5635 13.6764 17.3511L15.3572 17.028C16.3662 16.834 17.2378 17.6814 16.9412 18.5681C16.6048 19.5741 15.714 20.3535 14.5845 20.6298L14.1051 20.7471C12.7269 21.0843 11.2731 21.0843 9.89488 20.7471L9.41553 20.6298C8.28602 20.3535 7.39518 19.5741 7.05876 18.5681Z" stroke="#9AA4B2" stroke-width="1.5"/>
</svg>
