<svg width="20" height="20" viewBox="0 0 20 20" fill="none" xmlns="http://www.w3.org/2000/svg">
<path d="M7.73919 9.98716L3.69134 14.036C3.55827 14.1691 3.47751 14.2517 3.42474 14.3084L3.32611 14.4276C3.30349 14.4619 3.28334 14.4981 3.26556 14.535L3.21966 14.6502C3.20804 14.6862 3.19875 14.725 3.18744 14.8016L3.14154 15.1795L2.93158 17.0672L4.82025 16.8583L5.19916 16.8133C5.27541 16.8021 5.31473 16.7927 5.35052 16.7811L5.46478 16.7352C5.50192 16.7174 5.53773 16.6964 5.5722 16.6737L5.69232 16.576C5.74897 16.5233 5.83095 16.4423 5.9638 16.3094L10.0117 12.2596L11.0732 13.3211L7.02435 17.37C6.85674 17.5376 6.71188 17.6851 6.55755 17.8094L6.39837 17.9266C6.26219 18.0164 6.11693 18.0917 5.96576 18.1522L5.81244 18.2079C5.68755 18.2483 5.55938 18.2749 5.42376 18.2958L4.98626 18.3495L2.16595 18.6629C1.9397 18.688 1.71369 18.609 1.55267 18.4481C1.39173 18.287 1.31274 18.0611 1.33783 17.8348L1.6513 15.0145L1.70404 14.577C1.72488 14.4412 1.75147 14.3134 1.79193 14.1883L1.84759 14.035C1.90814 13.8836 1.98426 13.7387 2.07416 13.6024L2.19037 13.4432C2.31482 13.2886 2.46284 13.1434 2.6308 12.9754L6.67865 8.92661L7.73919 9.98716ZM13.7519 1.86021C14.9715 0.758292 16.8548 0.795295 18.0302 1.97056L18.1406 2.08677C19.2066 3.2671 19.2069 5.0687 18.1406 6.24888L18.0302 6.36411L12.4872 11.9071L11.4257 10.8456L13.9384 8.33384L11.666 6.0604L9.15326 8.5731L8.09271 7.51255L13.6357 1.97056L13.7519 1.86021ZM16.9697 3.0311C16.3812 2.44286 15.4494 2.4058 14.8183 2.92075L14.6962 3.0311L12.7265 4.99985L14.999 7.27329L16.9697 5.30357L17.08 5.18149C17.5602 4.59246 17.5602 3.74218 17.08 3.15317L16.9697 3.0311Z" fill="#ADB5BD"/>
<path d="M19.1667 19.1673L0.833416 0.833984" stroke="#ADB5BD" stroke-width="1.5" stroke-linecap="round" stroke-linejoin="round"/>
</svg>
