<svg width="24" height="24" viewBox="0 0 24 24" fill="none" xmlns="http://www.w3.org/2000/svg">
<path fill-rule="evenodd" clip-rule="evenodd" d="M12 1.25C6.063 1.25 1.25 6.063 1.25 12C1.25 13.856 1.721 15.605 2.55 17.13L1.763 21.363C1.74085 21.4826 1.74814 21.6058 1.78422 21.722C1.82031 21.8382 1.88412 21.9438 1.97014 22.0299C2.05616 22.1159 2.16181 22.1797 2.27799 22.2158C2.39417 22.2519 2.51738 22.2591 2.637 22.237L6.87 21.449C8.44408 22.3054 10.208 22.7527 12 22.75C17.937 22.75 22.75 17.937 22.75 12C22.75 6.063 17.937 1.25 12 1.25Z" fill="#0565FF"/>
<path d="M11.9994 13.5789C12.9587 13.5789 13.733 12.7326 13.733 11.6842V7.89474C13.733 6.84632 12.9587 6 11.9994 6C11.0401 6 10.2658 6.84632 10.2658 7.89474V11.6842C10.2658 12.7326 11.0401 13.5789 11.9994 13.5789ZM15.4146 11.6842C15.1315 11.6842 14.8945 11.9116 14.8483 12.2211C14.6114 13.7053 13.4267 14.8421 11.9994 14.8421C10.572 14.8421 9.3874 13.7053 9.15048 12.2211C9.12987 12.0726 9.06156 11.937 8.95777 11.8386C8.85399 11.7403 8.72154 11.6855 8.58416 11.6842C8.23166 11.6842 7.95428 12.0253 8.00629 12.4042C8.28945 14.2989 9.67634 15.7832 11.4215 16.0547V17.3684C11.4215 17.7158 11.6816 18 11.9994 18C12.3172 18 12.5773 17.7158 12.5773 17.3684V16.0547C13.4277 15.9222 14.2174 15.4969 14.8315 14.8404C15.4457 14.1839 15.8524 13.3305 15.9925 12.4042C16.0503 12.0253 15.7671 11.6842 15.4146 11.6842Z" fill="white"/>
</svg>
