<svg width="16" height="16" viewBox="0 0 16 16" fill="none" xmlns="http://www.w3.org/2000/svg">
<path d="M10.8284 5.17116C11.1999 5.5426 11.4945 5.98355 11.6955 6.46886C11.8965 6.95416 12 7.4743 12 7.99959C12 8.52488 11.8965 9.04502 11.6955 9.53032C11.4945 10.0156 11.1999 10.4566 10.8284 10.828M9.41421 6.58539C9.59993 6.77111 9.74725 6.99158 9.84776 7.23423C9.94827 7.47689 10 7.73696 10 7.9996C10 8.26225 9.94827 8.52232 9.84776 8.76497C9.74725 9.00762 9.59993 9.2281 9.41421 9.41382M4.66667 5.33292L7.6302 3.35723C8.07324 3.06187 8.66667 3.37946 8.66667 3.91193V12.0872C8.66667 12.6197 8.07324 12.9373 7.6302 12.6419L4.66667 10.6663H3.33333C2.59695 10.6663 2 10.0693 2 9.33292V6.66625C2 5.92987 2.59695 5.33292 3.33333 5.33292H4.66667Z" stroke="#ADB5BD" stroke-width="1.5" stroke-linecap="round" stroke-linejoin="round"/>
</svg>
