<svg width="16" height="16" viewBox="0 0 16 16" fill="none" xmlns="http://www.w3.org/2000/svg">
<path fill-rule="evenodd" clip-rule="evenodd" d="M9.66776 1.25L9.8787 1.25977C10.3669 1.30337 10.8327 1.49453 11.2117 1.81055C11.5186 2.06653 11.7529 2.39396 11.9012 2.75977C12.0788 2.83031 12.2483 2.92093 12.4051 3.03223C12.695 3.23804 12.9362 3.50531 13.1101 3.81543C13.284 4.12548 13.3865 4.47058 13.4109 4.8252C13.4221 4.98724 13.4139 5.14956 13.3924 5.30957C13.4622 5.38089 13.5271 5.45666 13.5877 5.53613L13.6023 5.55566C13.6732 5.65069 13.7382 5.75038 13.7947 5.85547C13.7975 5.86073 13.8 5.86615 13.8026 5.87158C13.8048 5.87634 13.8069 5.8811 13.8094 5.88574C13.8198 5.90575 13.8298 5.92597 13.8396 5.94629C13.8617 5.99174 13.883 6.03737 13.9021 6.08398L13.9093 6.10088L13.9093 6.10094C13.9129 6.10924 13.9164 6.11755 13.9197 6.12598C13.9423 6.18412 13.9623 6.24312 13.9803 6.30273L13.9839 6.31395C13.9853 6.31833 13.9868 6.32271 13.9881 6.32715C13.9894 6.33171 13.9903 6.33647 13.9911 6.34122L13.9911 6.34123C13.9919 6.34571 13.9927 6.35018 13.9939 6.35449C14.0089 6.40841 14.0218 6.46274 14.033 6.51758C14.0341 6.5228 14.0354 6.52797 14.0367 6.53314C14.0382 6.53899 14.0397 6.54485 14.0408 6.55078C14.0523 6.61156 14.0613 6.67278 14.0682 6.73438C14.0695 6.7472 14.0705 6.76006 14.0714 6.77292L14.073 6.79395C14.0789 6.86237 14.0838 6.93103 14.0838 7C14.0838 7.0287 14.0811 7.0571 14.0779 7.08496C14.0728 7.21796 14.0572 7.34997 14.0301 7.48047C14.1537 7.61548 14.2621 7.76259 14.3562 7.91895L14.361 7.92679C14.3639 7.93168 14.3669 7.93657 14.3699 7.94148C14.3722 7.94535 14.3745 7.94923 14.3767 7.95312C14.4938 8.15395 14.5849 8.36932 14.6482 8.5957C14.6552 8.62067 14.6615 8.64577 14.6678 8.6709C14.6706 8.6823 14.674 8.69357 14.6774 8.70484L14.6774 8.70488L14.6774 8.70489C14.6817 8.71917 14.6861 8.73346 14.6892 8.74805C14.6915 8.75834 14.6931 8.7688 14.6947 8.77925L14.6947 8.77932C14.696 8.78781 14.6974 8.7963 14.699 8.80469C14.7008 8.81366 14.7023 8.82268 14.7038 8.8317L14.7068 8.84961C14.7367 9.01569 14.7506 9.18268 14.7498 9.34961C14.7497 9.37175 14.7495 9.39387 14.7488 9.41602C14.741 9.68283 14.6955 9.9474 14.6122 10.2012C14.4341 9.45403 13.8368 8.86948 13.0826 8.70997C12.9944 8.5588 12.8747 8.42735 12.7312 8.3252C12.4832 8.14833 12.3736 7.84451 12.4353 7.55762C12.4359 7.55477 12.4363 7.55187 12.4367 7.54897C12.4371 7.54565 12.4375 7.54232 12.4383 7.53906C12.447 7.5029 12.46 7.46783 12.4744 7.43262C12.4768 7.42676 12.4789 7.42078 12.481 7.4148C12.4843 7.40532 12.4876 7.39582 12.492 7.38672L12.5252 7.31055C12.5711 7.18902 12.588 7.05943 12.5789 6.93066C12.5698 6.80981 12.5374 6.69225 12.4822 6.58398C12.4082 6.44021 12.2973 6.31768 12.158 6.23145C12.1526 6.22811 12.1476 6.2241 12.1427 6.22011C12.1387 6.21693 12.1348 6.21376 12.1307 6.21094C12.0142 6.14245 11.8847 6.0992 11.7498 6.08691C11.599 6.07326 11.4467 6.09692 11.3074 6.15625L11.2351 6.18262C10.8721 6.2959 10.4755 6.11803 10.323 5.76074C10.1606 5.37978 10.3376 4.93889 10.7185 4.77637L10.8572 4.72266C11.1655 4.61307 11.493 4.56805 11.8201 4.58887C11.8175 4.58363 11.8151 4.57827 11.8127 4.57291L11.8127 4.5729C11.8092 4.56509 11.8057 4.55727 11.8016 4.5498C11.7363 4.43338 11.6458 4.33215 11.5369 4.25488C11.4282 4.17782 11.3038 4.12577 11.1726 4.10254C10.8644 4.0481 10.6221 3.80779 10.5652 3.5C10.5264 3.28974 10.415 3.09985 10.2508 2.96289C10.0866 2.82598 9.8796 2.75049 9.66581 2.75C9.42301 2.75023 9.19005 2.84685 9.01835 3.01855C8.86797 3.16898 8.77549 3.36634 8.75468 3.57617L8.74979 3.66699V12.0943C8.69572 12.2756 8.66667 12.4677 8.66667 12.6667C8.66667 13.6702 9.40581 14.5011 10.3694 14.6447C9.88907 14.792 9.37397 14.7852 8.89726 14.626C8.55995 14.5132 8.25472 14.3267 7.99979 14.084C7.74482 14.3267 7.43969 14.5133 7.10233 14.626C6.62137 14.7867 6.10192 14.792 5.61796 14.6406C5.25152 14.5259 4.91966 14.3252 4.64823 14.0586C4.39944 14.0237 4.15659 13.9517 3.92948 13.8408C3.59354 13.6768 3.3004 13.4362 3.07401 13.1387C2.84766 12.8412 2.6943 12.4944 2.62577 12.127C2.59891 11.9828 2.58496 11.8371 2.58476 11.6914C2.18225 11.45 1.8438 11.11 1.60819 10.6963C1.38405 10.3027 1.26503 9.86298 1.25175 9.41699C1.25105 9.39452 1.25091 9.37207 1.25077 9.34961C1.2499 9.18271 1.26391 9.01567 1.29374 8.84961C1.29596 8.83721 1.29837 8.82486 1.30079 8.8125L1.30155 8.80859C1.30334 8.79943 1.30463 8.79015 1.30591 8.78088L1.30591 8.78087C1.30743 8.76988 1.30895 8.75888 1.31132 8.74805C1.31592 8.72701 1.32173 8.7063 1.32753 8.6856C1.33101 8.67323 1.33448 8.66086 1.33769 8.64844C1.34002 8.63939 1.34263 8.63043 1.34524 8.62146L1.34524 8.62145L1.35038 8.60352C1.39511 8.44165 1.45356 8.28533 1.52616 8.13574L1.53477 8.11757C1.53897 8.1086 1.54316 8.09964 1.54765 8.09082C1.57111 8.04463 1.59684 7.99982 1.62284 7.95508L1.62945 7.94367C1.63403 7.93572 1.63861 7.92778 1.64335 7.91992C1.7375 7.7633 1.84684 7.61669 1.9705 7.48145C1.94151 7.34227 1.92365 7.20149 1.91972 7.05957C1.91817 7.03991 1.91679 7.02006 1.91679 7C1.91679 6.99803 1.91703 6.99605 1.91728 6.99408C1.91751 6.99215 1.91775 6.99022 1.91776 6.98828C1.91778 6.98057 1.91803 6.97286 1.91829 6.96516L1.91874 6.94922C1.91982 6.89791 1.92321 6.84688 1.92753 6.7959L1.9292 6.77328C1.9301 6.7603 1.931 6.74733 1.93241 6.73438C1.93922 6.67283 1.94729 6.61151 1.95878 6.55078C1.96031 6.54261 1.96241 6.53455 1.96451 6.52649L1.96451 6.52649C1.9663 6.51964 1.96808 6.51279 1.96952 6.50586L1.97231 6.4925C1.98126 6.44954 1.99021 6.40659 2.00175 6.36426L2.00525 6.35112L2.00526 6.3511C2.00728 6.34343 2.00931 6.33576 2.01151 6.32812C2.01279 6.32372 2.01442 6.31931 2.01606 6.31491L2.01606 6.31491L2.01607 6.3149C2.01757 6.31084 2.01908 6.30678 2.0203 6.30273C2.03895 6.24086 2.05921 6.17943 2.0828 6.11914C2.08619 6.11049 2.08981 6.10193 2.09342 6.09338L2.09342 6.09337L2.0994 6.0791C2.11777 6.03455 2.13792 5.99075 2.15897 5.94727L2.16864 5.92695C2.17438 5.91476 2.18012 5.90258 2.18632 5.89062C2.1924 5.87886 2.19859 5.86715 2.20487 5.85547C2.26063 5.75178 2.32358 5.65249 2.39335 5.55859C2.39903 5.55099 2.40485 5.54347 2.41066 5.53596L2.41067 5.53595L2.41581 5.5293C2.47459 5.45266 2.53779 5.37956 2.60526 5.31055C2.58368 5.15022 2.57749 4.98757 2.58866 4.8252C2.61311 4.47049 2.7155 4.12553 2.88944 3.81543C3.06347 3.50522 3.30441 3.23705 3.59452 3.03125C3.75097 2.92029 3.92029 2.83018 4.09745 2.75977C4.17074 2.57908 4.26542 2.40682 4.38065 2.24805C4.5918 1.95724 4.86482 1.71675 5.18046 1.54492C5.49628 1.37303 5.8468 1.27426 6.20585 1.25488C6.5649 1.23551 6.92414 1.29669 7.25663 1.43359H7.25761L7.41972 1.50781C7.63343 1.61536 7.82859 1.75467 8.00077 1.91895C8.44964 1.49106 9.04517 1.25 9.66679 1.25H9.66776ZM10.6395 10.6681C10.6484 10.6581 10.6575 10.6485 10.6669 10.639L10.6667 10.6667L10.6395 10.6681ZM7.24003 3.53223C7.22022 3.39863 7.17116 3.27043 7.0955 3.15723C6.99502 3.0069 6.85227 2.88974 6.68534 2.82031L6.58866 2.78711C6.49085 2.75906 6.38898 2.74744 6.2869 2.75293C6.15088 2.76027 6.01791 2.79725 5.89823 2.8623C5.7786 2.92742 5.67459 3.01872 5.59452 3.12891C5.53448 3.21163 5.48834 3.30401 5.45878 3.40137L5.43436 3.50098C5.37724 3.80835 5.13578 4.04811 4.82792 4.10254C4.69655 4.12569 4.57151 4.17774 4.46269 4.25488C4.35392 4.33204 4.26334 4.43257 4.19804 4.54883C4.19211 4.55939 4.18661 4.57052 4.1812 4.58146L4.18119 4.58147L4.17753 4.58887C4.50492 4.56771 4.83277 4.61315 5.1414 4.72266L5.28104 4.77637L5.3494 4.81055C5.68236 4.9941 5.8288 5.40345 5.67655 5.76074C5.52428 6.11797 5.12743 6.29659 4.76444 6.18359L4.69315 6.15625L4.58573 6.11914C4.47727 6.08806 4.36378 6.07669 4.25077 6.08691C4.11382 6.09936 3.98182 6.14356 3.86405 6.21387L3.84159 6.23145C3.70406 6.31665 3.59328 6.43666 3.51933 6.57812C3.46189 6.68897 3.42959 6.8104 3.42069 6.93457C3.41053 7.08908 3.43886 7.24455 3.50761 7.38574L3.51054 7.39355C3.51405 7.40105 3.51672 7.40885 3.51939 7.41663L3.51939 7.41664C3.52124 7.42201 3.52308 7.42737 3.52519 7.43262C3.53838 7.46492 3.54995 7.49715 3.55839 7.53027C3.56069 7.53955 3.56235 7.54892 3.56401 7.55828L3.56401 7.55829L3.5662 7.57031C3.57359 7.60776 3.57827 7.64497 3.57987 7.68262L3.57989 7.69021L3.57987 7.69629C3.58468 7.89532 3.51304 8.09127 3.37089 8.2373L3.26835 8.3252C3.08068 8.45897 2.9344 8.64284 2.8455 8.85547C2.75659 9.06819 2.72873 9.30168 2.76542 9.5293C2.80208 9.75677 2.90145 9.9696 3.05253 10.1436C3.20365 10.3174 3.40083 10.4456 3.62089 10.5137C3.64484 10.5211 3.6676 10.5317 3.69001 10.5421L3.70878 10.5508C3.97192 10.6134 4.24924 10.5896 4.49882 10.4805L4.57108 10.4531C4.93283 10.3367 5.33129 10.5107 5.4871 10.8662C5.65323 11.2456 5.47982 11.6884 5.10038 11.8545L4.86405 11.9453C4.64026 12.0196 4.40873 12.062 4.17558 12.0771C4.20152 12.1308 4.23201 12.1827 4.26835 12.2305C4.35291 12.3415 4.46229 12.4309 4.58769 12.4922C4.71323 12.5535 4.85131 12.5847 4.99101 12.583H5.00663L5.09452 12.5889C5.29754 12.6128 5.48332 12.719 5.60722 12.8848C5.72195 13.0382 5.88237 13.1517 6.06522 13.209C6.24822 13.2663 6.44487 13.2639 6.62675 13.2031C6.80865 13.1424 6.96705 13.0259 7.0789 12.8701C7.19062 12.7144 7.25032 12.5276 7.24979 12.3359V3.66699L7.24003 3.53223Z" fill="white"/>
<path d="M12.6665 10.666V14.666M14.6665 12.666L10.6665 12.666" stroke="white" stroke-width="1.5" stroke-linecap="round"/>
</svg>
